<?xml version="1.0" encoding="utf-8"?>
<!-- Generator: Adobe Illustrator 25.3.1, SVG Export Plug-In . SVG Version: 6.00 Build 0)  -->
<svg version="1.1" id="Layer_1" xmlns="http://www.w3.org/2000/svg" xmlns:xlink="http://www.w3.org/1999/xlink" x="0px" y="0px"
	 viewBox="0 0 421.01 128.11" style="enable-background:new 0 0 421.01 128.11;" xml:space="preserve">
<style type="text/css">
	.st0{fill-rule:evenodd;clip-rule:evenodd;fill:#00416B;}
	.st1{fill:#00416B;}
</style>
<g>
	<path class="st0" d="M174.23,31.95l-1.69,0.28c-0.29,0.05-0.54,0.2-0.77,0.45c-0.22,0.25-0.33,0.53-0.33,0.84v4.67v11.35
		c0,1.81-0.45,3.48-1.36,5.03c-0.9,1.54-2.12,2.77-3.65,3.67c-1.53,0.9-3.21,1.35-5.05,1.35h-1.73c-1.78,0-3.34-0.45-4.67-1.34
		c-1.33-0.89-2.35-2.1-3.04-3.63c-0.69-1.53-1.04-3.23-1.04-5.08V38.2v-4.67h-0.04c0-0.31-0.1-0.6-0.29-0.84
		c-0.2-0.25-0.45-0.39-0.77-0.41l-1.69-0.31v-0.55h8.76v0.55l-1.69,0.28c-0.31,0.05-0.58,0.2-0.78,0.45
		c-0.21,0.25-0.31,0.53-0.31,0.84v4.67v13.12c0,1.23,0.3,2.36,0.9,3.38c0.6,1.02,1.42,1.83,2.45,2.43c1.03,0.6,2.15,0.9,3.36,0.9
		h1.18c1.2,0,2.32-0.3,3.36-0.9c1.03-0.6,1.85-1.41,2.45-2.43c0.6-1.02,0.9-2.15,0.9-3.38V38.2v-4.67c0-0.34-0.1-0.63-0.31-0.86
		c-0.21-0.24-0.47-0.38-0.78-0.43l-1.69-0.28v-0.55h8.33V31.95L174.23,31.95z M203.87,31.92l-1.73,0.31
		c-0.29,0.05-0.54,0.2-0.75,0.43c-0.21,0.24-0.31,0.51-0.31,0.82V53.2v5.69h-0.63l-19.09-21.84v19.75c0.03,0.34,0.14,0.62,0.35,0.84
		c0.21,0.22,0.46,0.36,0.75,0.41l1.69,0.31v0.51h-2.79h-2.75h-2.79v-0.51l1.73-0.31c0.31-0.05,0.57-0.2,0.77-0.45
		c0.2-0.25,0.29-0.53,0.29-0.84V33.49c0-0.31-0.1-0.59-0.31-0.82c-0.21-0.24-0.46-0.38-0.75-0.43l-1.73-0.31v-0.51h2.79h0.55h1.65
		c0.39,0,0.71,0.14,0.94,0.43L198.3,50.8V33.49c0-0.31-0.1-0.6-0.31-0.84c-0.21-0.25-0.47-0.39-0.78-0.41l-1.65-0.31v-0.51h2.75
		h2.79h2.79V31.92L203.87,31.92z M213.73,32.23c-0.31,0.05-0.58,0.2-0.79,0.43c-0.21,0.24-0.31,0.51-0.31,0.82v23.33
		c0,0.31,0.11,0.59,0.33,0.83c0.22,0.24,0.48,0.38,0.77,0.43l1.73,0.31v0.51h-2.83h-3.22h-2.79v-0.51l1.69-0.31
		c0.31-0.03,0.58-0.16,0.79-0.41c0.21-0.25,0.31-0.53,0.31-0.84V33.53c0-0.34-0.11-0.63-0.31-0.86c-0.21-0.24-0.47-0.38-0.79-0.43
		l-1.69-0.31v-0.51h2.79h3.22h2.83v0.51L213.73,32.23L213.73,32.23z M243.69,31.41v0.51l-2.12,0.39c-0.47,0.13-0.76,0.39-0.86,0.79
		l-10.05,26.15h-1.57l-10.01-26.12c-0.08-0.21-0.21-0.39-0.39-0.53c-0.18-0.14-0.38-0.24-0.59-0.29l-2.04-0.39v-0.51h8.56v0.51
		l-0.86,0.16c-0.29,0.05-0.54,0.2-0.75,0.43c-0.21,0.24-0.31,0.51-0.31,0.82c0,0.18,0.04,0.35,0.12,0.51l7.38,19.4l7.5-19.56
		c0.03-0.08,0.04-0.2,0.04-0.35c0-0.29-0.09-0.55-0.28-0.79c-0.18-0.24-0.42-0.39-0.71-0.47l-0.9-0.16v-0.51H243.69L243.69,31.41z
		 M262.51,57.79c0,0.31-0.11,0.58-0.31,0.79c-0.21,0.21-0.47,0.31-0.79,0.31H250.1h-3.22h-2.79v-0.51l1.69-0.31
		c0.31-0.03,0.58-0.16,0.79-0.41c0.21-0.25,0.31-0.53,0.31-0.84V33.53c0-0.34-0.11-0.63-0.31-0.86c-0.21-0.24-0.47-0.38-0.79-0.43
		l-1.69-0.31v-0.51h2.79h3.22h9.97c0.29,0,0.53,0.1,0.73,0.29c0.2,0.2,0.29,0.43,0.29,0.69v1.37v2.75h-0.51l-0.31-1.65
		c-0.05-0.31-0.2-0.57-0.43-0.77c-0.24-0.2-0.51-0.31-0.82-0.33h-8.29c-0.18,0-0.33,0.07-0.45,0.2c-0.12,0.13-0.18,0.29-0.18,0.47
		v7.78c0,0.18,0.07,0.34,0.2,0.47c0.13,0.13,0.29,0.2,0.47,0.2h5.58c0.31-0.03,0.6-0.14,0.84-0.33c0.25-0.2,0.39-0.44,0.41-0.73
		l0.31-1.69h0.51v2.75v1.26v0.47v2.75h-0.51l-0.31-1.69c-0.05-0.29-0.2-0.54-0.43-0.75c-0.24-0.21-0.51-0.31-0.82-0.31h-5.58
		c-0.18,0-0.34,0.06-0.47,0.18c-0.13,0.12-0.2,0.28-0.2,0.49v10.01c0,0.34,0.12,0.64,0.35,0.88c0.24,0.25,0.52,0.37,0.86,0.37h9.11
		c0.31,0,0.59-0.11,0.82-0.31c0.24-0.21,0.38-0.46,0.43-0.75l0.31-1.69h0.51V57.79L262.51,57.79z M288.3,58.38v0.51h-2.79h-2.04
		c-0.55,0-1.16-0.11-1.83-0.33c-0.67-0.22-1.15-0.52-1.43-0.88l-8.4-10.37h-0.71c-0.18,0-0.34,0.06-0.47,0.2
		c-0.13,0.13-0.2,0.29-0.2,0.47v8.84c0,0.31,0.1,0.6,0.31,0.84c0.21,0.25,0.47,0.39,0.79,0.41l1.69,0.31v0.51h-8.76v-0.51l1.65-0.31
		c0.31-0.03,0.58-0.16,0.79-0.41c0.21-0.25,0.31-0.53,0.31-0.84V33.49c0-0.31-0.1-0.6-0.31-0.84c-0.21-0.25-0.47-0.39-0.79-0.41
		l-1.65-0.31v-0.51h2.75h6.95c1.47,0,2.81,0.35,4.03,1.06c1.22,0.71,2.19,1.67,2.91,2.89c0.72,1.22,1.08,2.56,1.08,4.03
		c0,1.86-0.58,3.51-1.75,4.95c-1.17,1.44-2.64,2.37-4.42,2.79l7.58,9.39c0.31,0.34,0.66,0.62,1.04,0.84
		c0.38,0.22,0.7,0.38,0.96,0.47c0.26,0.09,0.43,0.15,0.51,0.18L288.3,58.38L288.3,58.38z M272.75,46.09c1.15,0,2.21-0.28,3.18-0.85
		c0.97-0.56,1.73-1.32,2.3-2.28c0.56-0.96,0.84-2,0.84-3.12c0-1.15-0.29-2.22-0.86-3.2c-0.58-0.98-1.36-1.76-2.34-2.34
		c-0.98-0.58-2.05-0.86-3.2-0.86h-1.53c-0.18,0-0.35,0.06-0.49,0.2c-0.14,0.13-0.22,0.3-0.22,0.51v11.94H272.75L272.75,46.09z
		 M306.13,51.55c0,0.05,0.01,0.15,0.04,0.29c0.03,0.14,0.04,0.35,0.04,0.61c0,1.07-0.24,2.19-0.73,3.36
		c-0.48,1.17-1.39,2.14-2.73,2.93c-0.03,0-0.19,0.09-0.49,0.26c-0.3,0.17-0.79,0.34-1.45,0.51c-0.67,0.17-1.37,0.26-2.1,0.26
		c-1.83,0-3.72-0.51-5.66-1.53l-1.96-1.14c-0.13-0.1-0.3-0.16-0.51-0.16c-0.24,0-0.43,0.07-0.59,0.2c-0.16,0.13-0.26,0.3-0.31,0.51
		l-0.12,0.51h-0.51v-7.38h0.83l0.55,2.87c0.16,1.02,0.69,1.85,1.61,2.47c0,0,0.37,0.21,1.1,0.63c1.68,0.92,3.21,1.37,4.59,1.37
		c1.94,0,3.36-0.94,4.28-2.83c0.03-0.05,0.07-0.16,0.14-0.33c0.07-0.17,0.13-0.42,0.2-0.75c0.07-0.33,0.1-0.67,0.1-1.04
		c0-1.02-0.31-2.05-0.92-3.1c-0.62-1.05-1.68-2.02-3.2-2.91c-0.6-0.34-1.54-0.9-2.81-1.67c-1.27-0.77-2.05-1.26-2.34-1.47
		c-1.2-0.84-2.2-1.77-2.98-2.79c-0.79-1.02-1.2-2.2-1.26-3.53c0-1.91,0.56-3.56,1.69-4.95c1.13-1.39,3.02-2.08,5.69-2.08
		c0.13,0,0.45,0.03,0.96,0.08c0.51,0.05,1.18,0.18,2,0.37c0.82,0.2,1.7,0.49,2.61,0.88c0.16,0.08,0.34,0.12,0.55,0.12
		c0.31,0,0.59-0.1,0.82-0.29c0.24-0.2,0.38-0.44,0.43-0.73l0.08-0.47h0.51v6.28h-0.51l-0.24-1.22c-0.1-0.5-0.31-0.95-0.61-1.36
		c-0.3-0.41-0.67-0.71-1.12-0.92c-0.52-0.26-1.2-0.5-2.02-0.71c-0.83-0.21-1.64-0.31-2.45-0.31c-1.34,0-2.42,0.36-3.26,1.08
		c-0.84,0.72-1.26,1.92-1.26,3.59c0,1.23,0.31,2.19,0.92,2.87c0.61,0.68,1.23,1.2,1.85,1.55c0.62,0.35,1,0.58,1.16,0.69
		c0.39,0.21,1.03,0.58,1.92,1.1c0.89,0.52,1.61,0.94,2.16,1.26C304.08,46.56,305.85,48.91,306.13,51.55L306.13,51.55z M316.07,32.23
		c-0.31,0.05-0.58,0.2-0.79,0.43c-0.21,0.24-0.31,0.51-0.31,0.82v23.33c0,0.31,0.11,0.59,0.33,0.83c0.22,0.24,0.48,0.38,0.77,0.43
		l1.73,0.31v0.51h-2.83h-3.22h-2.79v-0.51l1.69-0.31c0.31-0.03,0.58-0.16,0.79-0.41c0.21-0.25,0.31-0.53,0.31-0.84V33.53
		c0-0.34-0.11-0.63-0.31-0.86c-0.21-0.24-0.47-0.38-0.79-0.43l-1.69-0.31v-0.51h2.79h3.22h2.83v0.51L316.07,32.23L316.07,32.23z
		 M339.28,36.67L339,34.98c-0.05-0.29-0.2-0.54-0.43-0.75c-0.24-0.21-0.51-0.33-0.82-0.35h-5.22c-0.18,0-0.35,0.07-0.51,0.22
		c-0.16,0.14-0.24,0.32-0.24,0.53v22.19c0.03,0.31,0.14,0.59,0.33,0.83c0.2,0.24,0.44,0.38,0.73,0.43l1.73,0.31v0.51h-2.79h-3.22
		h-2.79v-0.51l1.69-0.31c0.31-0.05,0.58-0.2,0.78-0.43c0.21-0.24,0.31-0.52,0.31-0.86V34.63c0-0.21-0.07-0.39-0.22-0.53
		c-0.14-0.14-0.32-0.22-0.53-0.22h-5.18c-0.34,0.03-0.62,0.14-0.84,0.35c-0.22,0.21-0.36,0.46-0.41,0.75l-0.31,1.69h-0.51v-2.79
		v-1.73c0-0.21,0.07-0.39,0.22-0.53c0.14-0.14,0.32-0.22,0.53-0.22h7.27h3.22h5.97h1.33c0.21,0,0.39,0.07,0.53,0.22
		c0.14,0.14,0.22,0.32,0.22,0.53v4.52H339.28L339.28,36.67z M365.71,58.38v0.51h-8.56v-0.51l0.86-0.16c0.29-0.05,0.54-0.2,0.75-0.45
		c0.21-0.25,0.31-0.53,0.31-0.84c0-0.16-0.04-0.31-0.12-0.47l-2.87-7.5h-8.05l-2.94,7.66c-0.03,0.08-0.04,0.18-0.04,0.31
		c0,0.31,0.09,0.59,0.27,0.82c0.18,0.24,0.42,0.38,0.71,0.43l0.9,0.2v0.51h-7.5v-0.51l0.63-0.12c0.65-0.1,1.23-0.36,1.73-0.77
		c0.5-0.41,0.86-0.91,1.1-1.51l9.58-24.94h0.2l9.54,24.9c0.24,0.58,0.6,1.07,1.08,1.49s1.04,0.68,1.67,0.78L365.71,58.38
		L365.71,58.38z M355.46,47.27l-3.42-8.8l-3.38,8.8H355.46L355.46,47.27z M384.32,51.55c0,0.05,0.01,0.15,0.04,0.29
		c0.03,0.14,0.04,0.35,0.04,0.61c0,1.07-0.24,2.19-0.73,3.36c-0.48,1.17-1.39,2.14-2.73,2.93c-0.03,0-0.19,0.09-0.49,0.26
		c-0.3,0.17-0.79,0.34-1.45,0.51c-0.67,0.17-1.37,0.26-2.1,0.26c-1.83,0-3.72-0.51-5.66-1.53l-1.96-1.14
		c-0.13-0.1-0.3-0.16-0.51-0.16c-0.24,0-0.43,0.07-0.59,0.2c-0.16,0.13-0.26,0.3-0.31,0.51l-0.12,0.51h-0.51v-7.38h0.83l0.55,2.87
		c0.16,1.02,0.69,1.85,1.61,2.47c0,0,0.37,0.21,1.1,0.63c1.68,0.92,3.21,1.37,4.59,1.37c1.94,0,3.36-0.94,4.28-2.83
		c0.03-0.05,0.07-0.16,0.14-0.33c0.07-0.17,0.13-0.42,0.2-0.75c0.07-0.33,0.1-0.67,0.1-1.04c0-1.02-0.31-2.05-0.92-3.1
		c-0.62-1.05-1.68-2.02-3.2-2.91c-0.6-0.34-1.54-0.9-2.81-1.67c-1.27-0.77-2.05-1.26-2.34-1.47c-1.2-0.84-2.2-1.77-2.98-2.79
		c-0.78-1.02-1.2-2.2-1.26-3.53c0-1.91,0.56-3.56,1.69-4.95c1.13-1.39,3.02-2.08,5.69-2.08c0.13,0,0.45,0.03,0.96,0.08
		c0.51,0.05,1.18,0.18,2,0.37c0.82,0.2,1.7,0.49,2.61,0.88c0.16,0.08,0.34,0.12,0.55,0.12c0.31,0,0.59-0.1,0.82-0.29
		c0.24-0.2,0.38-0.44,0.43-0.73l0.08-0.47h0.51v6.28h-0.51l-0.24-1.22c-0.11-0.5-0.31-0.95-0.61-1.36c-0.3-0.41-0.67-0.71-1.12-0.92
		c-0.52-0.26-1.2-0.5-2.02-0.71c-0.83-0.21-1.64-0.31-2.45-0.31c-1.34,0-2.42,0.36-3.26,1.08c-0.84,0.72-1.26,1.92-1.26,3.59
		c0,1.23,0.31,2.19,0.92,2.87c0.62,0.68,1.23,1.2,1.85,1.55c0.62,0.35,1,0.58,1.16,0.69c0.39,0.21,1.03,0.58,1.92,1.1
		c0.89,0.52,1.61,0.94,2.16,1.26C382.27,46.56,384.03,48.91,384.32,51.55L384.32,51.55z"/>
	<path class="st0" d="M177.05,84.52l-1.72,0.35c-0.31,0.05-0.57,0.2-0.78,0.45c-0.21,0.25-0.31,0.53-0.31,0.84v1.75v4.45v2.89
		c0,0.29-0.12,0.51-0.35,0.66c-1.27,0.88-2.78,1.52-4.52,1.91c-1.74,0.39-3.38,0.62-4.91,0.7c-1.53,0.08-2.3,0.09-2.3,0.04
		c-1.87,0-3.69-0.36-5.46-1.07c-1.77-0.72-3.34-1.75-4.72-3.1c-1.38-1.35-2.42-2.9-3.12-4.66c-0.7-1.75-1.05-3.57-1.05-5.44
		c0-1.92,0.37-3.79,1.11-5.61c0.74-1.82,1.83-3.44,3.26-4.87c1.43-1.43,3.07-2.51,4.93-3.24c1.86-0.73,3.79-1.09,5.79-1.09
		c1.69,0,3.56,0.18,5.61,0.53c2.05,0.35,3.83,1.05,5.34,2.09c0.26,0.18,0.39,0.43,0.39,0.74v6.04h-0.82l-0.16-0.74
		c-0.23-1.2-0.68-2.29-1.33-3.28l-0.27-0.27c-1.04-1.14-2.23-2.03-3.57-2.65c-1.34-0.62-2.76-0.94-4.27-0.94
		c-2.08,0-4.11,0.59-6.08,1.77c-1.98,1.18-3.58,2.77-4.82,4.78c-1.23,2-1.85,4.16-1.85,6.47c0,2.31,0.62,4.47,1.85,6.47
		c1.23,2,2.84,3.59,4.82,4.78c1.98,1.18,4,1.77,6.08,1.77c2.13,0,4.12-0.64,5.97-1.91l0.08-0.08c0,0,0.09-0.09,0.27-0.27
		c0.57-0.57,0.86-1.22,0.86-1.95v-6.67c0-0.31-0.11-0.59-0.33-0.84c-0.22-0.25-0.49-0.4-0.8-0.45l-1.76-0.35v-0.51h8.93V84.52
		L177.05,84.52z M202.35,97.23v0.51h-8.5v-0.51l0.86-0.16c0.29-0.05,0.53-0.2,0.74-0.45c0.21-0.25,0.31-0.53,0.31-0.84
		c0-0.16-0.04-0.31-0.12-0.47l-2.85-7.45h-7.99l-2.92,7.6c-0.03,0.08-0.04,0.18-0.04,0.31c0,0.31,0.09,0.59,0.27,0.82
		c0.18,0.23,0.42,0.38,0.7,0.43l0.9,0.19v0.51h-7.45v-0.51l0.62-0.12c0.65-0.1,1.22-0.36,1.72-0.76c0.49-0.4,0.86-0.9,1.09-1.5
		l9.51-24.76h0.19l9.47,24.72c0.23,0.57,0.59,1.07,1.07,1.48c0.48,0.42,1.03,0.68,1.66,0.78L202.35,97.23L202.35,97.23z
		 M192.18,86.19l-3.39-8.73l-3.35,8.73H192.18L192.18,86.19z M215.3,70.44c2.31,0,4.44,0.57,6.39,1.71c1.95,1.14,3.5,2.7,4.66,4.66
		c1.16,1.96,1.73,4.1,1.73,6.41v1.72c0,2.31-0.58,4.45-1.73,6.41c-1.16,1.96-2.71,3.52-4.66,4.66c-1.95,1.14-4.08,1.72-6.39,1.72
		h-8.03h-1.79h-2.73v-0.51l1.64-0.31c0.31-0.03,0.57-0.16,0.78-0.41c0.21-0.25,0.31-0.53,0.31-0.84V72.55c0-0.34-0.1-0.62-0.31-0.86
		c-0.21-0.23-0.47-0.38-0.78-0.43l-1.64-0.31v-0.51h2.73h3H215.3L215.3,70.44z M224.81,82.92c0-1.82-0.46-3.5-1.36-5.05
		c-0.91-1.55-2.14-2.77-3.68-3.66c-1.55-0.9-3.23-1.35-5.05-1.35h-5.54c-0.21,0-0.38,0.07-0.51,0.19c-0.13,0.13-0.19,0.29-0.19,0.47
		v21.17c0,0.18,0.07,0.34,0.21,0.47c0.14,0.13,0.31,0.19,0.49,0.19h5.54c1.82,0,3.5-0.45,5.05-1.36c1.55-0.91,2.78-2.14,3.68-3.68
		c0.91-1.55,1.36-3.23,1.36-5.05V82.92L224.81,82.92z M238.81,70.95l-1.72,0.31c-0.29,0.05-0.53,0.19-0.74,0.43
		c-0.21,0.23-0.31,0.51-0.31,0.82v19.92c0,4.52-1.03,7.84-3.1,9.96c-2.07,2.12-4.98,3.18-8.75,3.18v-1.36c1.4,0,2.76-0.38,4.07-1.15
		c1.31-0.77,2.41-2.03,3.29-3.78c0.88-1.75,1.33-4.04,1.33-6.84V72.55c0-0.34-0.11-0.62-0.33-0.86c-0.22-0.23-0.47-0.38-0.76-0.43
		l-1.68-0.31v-0.51h2.77h3.16h2.77V70.95L238.81,70.95z M264.11,97.23v0.51h-8.5v-0.51l0.86-0.16c0.29-0.05,0.53-0.2,0.74-0.45
		c0.21-0.25,0.31-0.53,0.31-0.84c0-0.16-0.04-0.31-0.12-0.47l-2.85-7.45h-7.99l-2.92,7.6c-0.03,0.08-0.04,0.18-0.04,0.31
		c0,0.31,0.09,0.59,0.27,0.82c0.18,0.23,0.42,0.38,0.7,0.43l0.9,0.19v0.51h-7.45v-0.51l0.62-0.12c0.65-0.1,1.22-0.36,1.72-0.76
		c0.49-0.4,0.86-0.9,1.09-1.5l9.51-24.76h0.19l9.47,24.72c0.23,0.57,0.59,1.07,1.07,1.48c0.48,0.42,1.03,0.68,1.66,0.78
		L264.11,97.23L264.11,97.23z M253.94,86.19l-3.39-8.73l-3.35,8.73H253.94L253.94,86.19z M288.91,95.67c0,0.31,0.1,0.59,0.31,0.84
		c0.21,0.25,0.47,0.38,0.78,0.41l1.68,0.31v0.51h-2.77h-3.2h-2.77v-0.51l1.72-0.31c0.29-0.05,0.53-0.2,0.74-0.43
		c0.21-0.23,0.31-0.51,0.31-0.82V83.23h-15.25v12.44c0,0.31,0.1,0.58,0.31,0.82c0.21,0.23,0.47,0.38,0.78,0.43l1.68,0.31v0.51h-2.81
		h-3.16h-2.77v-0.51l1.68-0.31c0.29-0.05,0.54-0.2,0.76-0.43c0.22-0.23,0.33-0.51,0.33-0.82V72.51c0-0.31-0.11-0.59-0.33-0.82
		c-0.22-0.23-0.47-0.38-0.76-0.43l-1.68-0.31v-0.51h2.77h3.2h2.77v0.51l-1.68,0.31c-0.31,0.05-0.57,0.19-0.78,0.43
		c-0.21,0.23-0.31,0.51-0.31,0.82v9.05h15.25v-9.05c0-0.31-0.1-0.59-0.31-0.82c-0.21-0.23-0.45-0.38-0.74-0.43l-1.72-0.31v-0.51
		h2.77h3.2h2.77v0.51L290,71.26c-0.31,0.03-0.57,0.16-0.78,0.41c-0.21,0.25-0.31,0.53-0.31,0.84V95.67L288.91,95.67z M338.04,71.26
		c-0.31,0.05-0.57,0.19-0.76,0.43c-0.19,0.23-0.31,0.51-0.33,0.82v23.16c0.03,0.31,0.14,0.58,0.33,0.82
		c0.19,0.23,0.45,0.38,0.76,0.43l1.68,0.31v0.51h-8.73v-0.51l1.68-0.31c0.31-0.05,0.57-0.2,0.78-0.43c0.21-0.23,0.31-0.52,0.31-0.86
		V73.29l-9.01,19.46l-1.36,2.88h-1.09l-0.31-0.7L311.6,72.55v23.16c0,0.31,0.1,0.58,0.31,0.8c0.21,0.22,0.45,0.36,0.74,0.41
		l1.71,0.31v0.51h-8.27v-0.51l1.68-0.31c0.29-0.05,0.53-0.2,0.74-0.43c0.21-0.23,0.31-0.51,0.31-0.82V72.51
		c0-0.31-0.1-0.59-0.31-0.82c-0.21-0.23-0.46-0.38-0.74-0.43l-1.68-0.31v-0.51h2.73h3.66c0.44,0,0.84,0.11,1.19,0.33
		c0.35,0.22,0.63,0.53,0.84,0.92l8.3,18.01l8.34-18.01c0.18-0.39,0.45-0.7,0.8-0.92c0.35-0.22,0.73-0.33,1.15-0.33h3.82l0,0h2.77
		v0.51L338.04,71.26L338.04,71.26z M365.8,97.23v0.51h-8.5v-0.51l0.86-0.16c0.29-0.05,0.53-0.2,0.74-0.45
		c0.21-0.25,0.31-0.53,0.31-0.84c0-0.16-0.04-0.31-0.12-0.47l-2.85-7.45h-7.99l-2.92,7.6c-0.03,0.08-0.04,0.18-0.04,0.31
		c0,0.31,0.09,0.59,0.27,0.82c0.18,0.23,0.42,0.38,0.7,0.43l0.9,0.19v0.51h-7.45v-0.51l0.62-0.12c0.65-0.1,1.22-0.36,1.72-0.76
		c0.49-0.4,0.86-0.9,1.09-1.5l9.51-24.76h0.19l9.47,24.72c0.23,0.57,0.59,1.07,1.07,1.48c0.48,0.42,1.03,0.68,1.66,0.78L365.8,97.23
		L365.8,97.23z M355.62,86.19l-3.39-8.73l-3.35,8.73H355.62L355.62,86.19z M378.74,70.44c2.31,0,4.44,0.57,6.39,1.71
		c1.95,1.14,3.5,2.7,4.66,4.66c1.16,1.96,1.74,4.1,1.74,6.41v1.72c0,2.31-0.58,4.45-1.74,6.41c-1.16,1.96-2.71,3.52-4.66,4.66
		c-1.95,1.14-4.08,1.72-6.39,1.72h-8.03h-1.79h-2.73v-0.51l1.64-0.31c0.31-0.03,0.57-0.16,0.78-0.41c0.21-0.25,0.31-0.53,0.31-0.84
		V72.55c0-0.34-0.1-0.62-0.31-0.86c-0.21-0.23-0.47-0.38-0.78-0.43l-1.64-0.31v-0.51h2.73h3H378.74L378.74,70.44z M388.25,82.92
		c0-1.82-0.46-3.5-1.36-5.05c-0.91-1.55-2.14-2.77-3.68-3.66c-1.55-0.9-3.23-1.35-5.05-1.35h-5.54c-0.21,0-0.38,0.07-0.51,0.19
		c-0.13,0.13-0.19,0.29-0.19,0.47v21.17c0,0.18,0.07,0.34,0.21,0.47c0.14,0.13,0.31,0.19,0.49,0.19h5.54c1.82,0,3.5-0.45,5.05-1.36
		c1.55-0.91,2.78-2.14,3.68-3.68c0.91-1.55,1.36-3.23,1.36-5.05V82.92L388.25,82.92z M416.83,97.23v0.51h-8.5v-0.51l0.86-0.16
		c0.29-0.05,0.53-0.2,0.74-0.45c0.21-0.25,0.31-0.53,0.31-0.84c0-0.16-0.04-0.31-0.12-0.47l-2.85-7.45h-7.99l-2.92,7.6
		c-0.03,0.08-0.04,0.18-0.04,0.31c0,0.31,0.09,0.59,0.27,0.82c0.18,0.23,0.42,0.38,0.7,0.43l0.9,0.19v0.51h-7.45v-0.51l0.62-0.12
		c0.65-0.1,1.22-0.36,1.72-0.76c0.49-0.4,0.86-0.9,1.09-1.5l9.51-24.76h0.19l9.47,24.72c0.23,0.57,0.59,1.07,1.07,1.48
		c0.48,0.42,1.03,0.68,1.66,0.78L416.83,97.23L416.83,97.23z M406.66,86.19l-3.39-8.73l-3.35,8.73H406.66L406.66,86.19z"/>
	<path class="st1" d="M76.16,50.74c-0.07,0.09-0.09,0.18-0.08,0.26c0.01,0.12,0.08,0.24,0.17,0.33c0.02,0.02,0.04,0.04,0.06,0.06
		c0.16,0.14,0.33,0.24,0.49,0.26c0.1,0.02,0.19,0.01,0.25-0.05l0,0l0.01-0.01h0c0.12-0.13,0.13-0.27,0.09-0.4
		c-0.06-0.19-0.21-0.39-0.35-0.56c-0.05-0.06-0.09-0.11-0.12-0.15l0,0c-0.21-0.3-0.29-0.6-0.26-0.87c0.03-0.29,0.17-0.55,0.4-0.75
		c0.03-0.03,0.07-0.05,0.1-0.08v0c0.29-0.2,0.6-0.3,0.91-0.27c0.3,0.03,0.59,0.17,0.87,0.42c0.22,0.2,0.4,0.49,0.49,0.8
		c0.08,0.3,0.08,0.61-0.08,0.89l-0.71-0.39c0.04-0.07,0.03-0.17,0.01-0.28c-0.05-0.16-0.14-0.31-0.26-0.42
		c-0.14-0.13-0.27-0.2-0.39-0.21c-0.12-0.01-0.24,0.03-0.37,0.12l0,0c-0.01,0.01-0.03,0.02-0.04,0.03c-0.07,0.06-0.11,0.13-0.11,0.2
		c-0.01,0.09,0.03,0.21,0.12,0.34h0c0.03,0.04,0.05,0.07,0.07,0.09c0.2,0.23,0.41,0.52,0.51,0.85c0.12,0.38,0.08,0.79-0.27,1.18l0,0
		c-0.02,0.02-0.03,0.03-0.04,0.05h0c-0.26,0.25-0.6,0.33-0.96,0.26c-0.3-0.06-0.62-0.22-0.89-0.46c-0.04-0.03-0.07-0.07-0.1-0.1
		c-0.2-0.21-0.36-0.49-0.4-0.81c-0.03-0.27,0.03-0.57,0.24-0.84L76.16,50.74L76.16,50.74z M42.14,49.75c0.09,0.09,0.19,0.19,0.3,0.3
		c0.27,0.27,0.58,0.58,0.89,0.84c0.54,0.45,1.12,0.75,1.48,0.31c0.28-0.34,0.35-0.67,0.18-1.04c-0.21-0.47-0.73-1.03-1.59-1.75
		l0.52-0.62c0.95,0.8,1.55,1.45,1.81,2.04c0.31,0.69,0.2,1.28-0.3,1.89c-0.79,0.95-1.75,0.52-2.62-0.2
		c-0.34-0.28-0.67-0.61-0.95-0.9c-0.1-0.1-0.2-0.2-0.29-0.29L42.14,49.75L42.14,49.75z M46.62,49.81l-2-2.9l0.59-0.4l3.06,0.64
		l-1.13-1.8l0.69-0.43l1.63,2.61l0.25,0.4l-0.59,0.35l-3.09-0.77l1.26,1.83L46.62,49.81L46.62,49.81z M49.31,44.08l1.49,2.86
		l-0.72,0.37l-1.49-2.86L49.31,44.08L49.31,44.08z M50.71,43.13l1.84,1.99l0.17-2.6l0.81,0.05l-0.57,3.87l-2.84-2.76L50.71,43.13
		L50.71,43.13z M57.06,42.17c-0.14,0.03-0.3,0.05-0.46,0.08c-0.57,0.09-1.25,0.19-1.26,0.44c-0.01,0.2-0.01,0.37,0.01,0.53
		l1.61-0.34l0.17,0.79l-1.59,0.33c0.04,0.12,0.09,0.25,0.14,0.4v0l0.08,0.22c0,0,0.18-0.02,0.41-0.05c0.39-0.05,0.85-0.19,1.2-0.3
		l0.25,0.77c-0.39,0.12-0.9,0.27-1.35,0.33c-0.6,0.08-1.11-0.02-1.28-0.49l-0.08-0.22l0,0c-0.28-0.78-0.43-1.21-0.38-2.04
		c0.06-0.9,1.09-1.06,1.95-1.19c0.15-0.02,0.3-0.05,0.43-0.07L57.06,42.17L57.06,42.17z M61.66,45.02
		c-0.21-0.39-0.42-0.69-0.61-0.92c-0.15-0.18-0.28-0.31-0.42-0.41c-0.29,0.01-0.58,0-0.88,0l-0.09,0l0,1.1l-0.81,0l0.01-3.16l0-0.34
		l0.33-0.06c0.16-0.03,0.32-0.05,0.47-0.07c0.54-0.06,1.07-0.05,1.51,0.08c0.52,0.16,0.9,0.48,1,1.03c0.01,0.04,0.01,0.07,0.01,0.09
		l0,0c0,0.03,0,0.05,0.01,0.06c0.02,0.37-0.18,0.68-0.47,0.9c-0.05,0.04-0.11,0.08-0.17,0.12c0.04,0.05,0.09,0.1,0.13,0.15
		c0.22,0.27,0.46,0.61,0.7,1.05L61.66,45.02L61.66,45.02z M59.67,41.96l0,0.9l0.1,0c0.32,0.01,0.64,0.01,0.97,0c0,0,0.02,0,0.04,0
		c0.15-0.02,0.32-0.09,0.45-0.19c0.09-0.07,0.16-0.16,0.16-0.23c0-0.01,0,0,0-0.01l0,0c0-0.02,0-0.03-0.01-0.04
		c-0.04-0.2-0.2-0.33-0.43-0.4c-0.32-0.1-0.74-0.1-1.19-0.05L59.67,41.96L59.67,41.96z M63.92,44.26c0.05,0.1,0.17,0.21,0.3,0.3
		c0.12,0.08,0.26,0.14,0.38,0.15c0.18,0.02,0.37-0.02,0.51-0.1c0.09-0.05,0.16-0.13,0.18-0.22c0.01-0.03,0.01-0.05,0.01-0.08
		c0.01-0.12-0.02-0.21-0.07-0.26c-0.07-0.07-0.18-0.12-0.3-0.14c-0.03-0.01-0.07-0.01-0.11-0.02h0l-0.02,0h0
		c-0.39-0.04-0.72-0.2-0.95-0.43c-0.25-0.25-0.38-0.57-0.35-0.91v0l0-0.01v0c0.03-0.32,0.24-0.61,0.53-0.79
		c0.27-0.17,0.61-0.27,0.94-0.24c0.34,0.03,0.61,0.18,0.81,0.36c0.19,0.17,0.31,0.38,0.4,0.54l-0.73,0.36
		c-0.05-0.1-0.12-0.22-0.22-0.31c-0.08-0.08-0.19-0.14-0.33-0.15c-0.15-0.01-0.31,0.03-0.43,0.11c-0.09,0.06-0.15,0.13-0.16,0.19h0
		l0,0l0,0c-0.01,0.09,0.04,0.19,0.11,0.27c0.1,0.1,0.26,0.17,0.45,0.19v0l0.01,0l0,0c0.07,0.01,0.13,0.02,0.2,0.03
		c0.28,0.06,0.54,0.18,0.73,0.38c0.21,0.22,0.32,0.51,0.29,0.89c0,0.05-0.01,0.11-0.03,0.17c-0.07,0.35-0.29,0.6-0.57,0.77
		c-0.29,0.17-0.65,0.23-0.98,0.2c-0.26-0.02-0.53-0.13-0.76-0.29c-0.24-0.16-0.45-0.38-0.57-0.6L63.92,44.26L63.92,44.26z
		 M68.36,42.64l-1.05,3.18l-0.77-0.25l1.05-3.18L68.36,42.64L68.36,42.64z M69.03,46.38l1.25-2.25l-0.88-0.46l0.37-0.72l2.5,1.3
		l-0.37,0.72L71,44.51l-1.26,2.27L69.03,46.38L69.03,46.38z M73.15,46.71c0.3,0.17,0.57,0.35,0.83,0.55
		c0.24,0.19,0.46,0.38,0.66,0.6c0.35-0.52,0.53-1.02,0.05-1.35C74.06,46.09,73.57,46.3,73.15,46.71L73.15,46.71z M73.48,47.9
		c-0.26-0.2-0.55-0.39-0.86-0.55c-0.06,0.08-0.11,0.15-0.17,0.23c-0.14,0.19-0.27,0.38-0.39,0.52l-0.64-0.51
		c0.13-0.17,0.25-0.33,0.36-0.49c0.79-1.11,1.7-2.37,3.33-1.26c1.03,0.69,0.78,1.58,0.17,2.47c-0.23,0.34-0.5,0.67-0.77,0.98
		c-0.11,0.13-0.22,0.26-0.3,0.36l-0.63-0.51c0.12-0.14,0.21-0.25,0.3-0.37c0.07-0.09,0.14-0.17,0.22-0.26
		C73.94,48.29,73.72,48.08,73.48,47.9L73.48,47.9z"/>
	<path class="st1" d="M43.74,76.86l1.22,1.42l0.28,0.32l-0.33,0.26c-0.16,0.13-0.32,0.27-0.48,0.41c-0.51,0.44-1.04,0.91-1.62,1.11
		c-0.33,0.12-0.67,0.09-0.98-0.03c-0.33-0.13-0.62-0.37-0.85-0.64c-0.21-0.26-0.33-0.6-0.39-0.94c-0.06-0.39-0.03-0.81,0.07-1.08
		l0.77,0.27c-0.05,0.16-0.07,0.42-0.03,0.69c0.03,0.21,0.1,0.42,0.21,0.55c0.14,0.17,0.32,0.32,0.52,0.4
		c0.14,0.06,0.28,0.07,0.41,0.03c0.44-0.15,0.91-0.56,1.36-0.95c0.06-0.05,0.12-0.11,0.18-0.16l-0.95-1.1L43.74,76.86L43.74,76.86z"
		/>
	<path class="st1" d="M44.62,80.62c0.06-0.05,0.12-0.11,0.2-0.17c0.34-0.26,0.76-0.49,1.21-0.53c0.49-0.05,0.99,0.1,1.45,0.6
		c0.04,0.04,0.08,0.09,0.13,0.15c0.38,0.49,0.46,0.97,0.37,1.41c-0.12,0.57-0.51,1.03-0.87,1.34c-0.02,0.02-0.04,0.03-0.07,0.05
		c-0.32,0.24-0.8,0.37-1.27,0.35c-0.48-0.02-0.97-0.2-1.28-0.57c-0.02-0.02-0.03-0.04-0.05-0.07c-0.29-0.38-0.48-0.85-0.44-1.35
		C44.01,81.42,44.2,81,44.62,80.62L44.62,80.62z M45.32,81.09c-0.05,0.04-0.1,0.08-0.15,0.13c-0.25,0.22-0.36,0.46-0.37,0.68
		c-0.02,0.28,0.1,0.56,0.28,0.81c0.01,0.01,0.01,0.02,0.02,0.03c0.16,0.18,0.42,0.27,0.7,0.29c0.29,0.01,0.57-0.06,0.75-0.19
		c0.01,0,0.01-0.01,0.03-0.02c0.25-0.22,0.53-0.53,0.6-0.88c0.05-0.23,0-0.48-0.21-0.76c-0.02-0.03-0.05-0.07-0.09-0.1
		c-0.26-0.28-0.52-0.37-0.77-0.34C45.83,80.75,45.55,80.91,45.32,81.09L45.32,81.09z"/>
	<path class="st1" d="M50.56,83.7c-0.05-0.14-0.17-0.31-0.32-0.47c-0.12-0.12-0.25-0.22-0.35-0.25c-0.21-0.06-0.49,0-0.74,0.13
		c-0.26,0.14-0.5,0.35-0.6,0.6c-0.15,0.33-0.2,0.72-0.11,1.07c0.07,0.27,0.23,0.52,0.52,0.68c0.18,0.1,0.38,0.18,0.56,0.21
		c0.15,0.02,0.31,0.01,0.44-0.07c0.16-0.09,0.27-0.33,0.37-0.58c-0.21-0.1-0.49-0.21-0.76-0.32c-0.12-0.05-0.24-0.1-0.39-0.16
		l0.31-0.75c0.09,0.04,0.23,0.09,0.38,0.15c0.45,0.18,0.95,0.38,1.21,0.58l0.24,0.19l-0.11,0.28c-0.01,0.04-0.02,0.06-0.06,0.16
		c-0.17,0.44-0.35,0.91-0.8,1.16c-0.31,0.17-0.63,0.21-0.95,0.16c-0.29-0.04-0.57-0.16-0.84-0.31c-0.51-0.28-0.79-0.71-0.91-1.19
		c-0.14-0.53-0.05-1.12,0.16-1.6c0.19-0.42,0.55-0.77,0.97-0.98c0.43-0.22,0.92-0.31,1.34-0.2c0.25,0.07,0.51,0.25,0.72,0.47
		c0.23,0.23,0.41,0.52,0.5,0.75L50.56,83.7L50.56,83.7z"/>
	<path class="st1" d="M53.77,84.03c0.24,0.09,0.47,0.18,0.71,0.26c0.25,0.08,0.53,0.17,0.89,0.26l0.37,0.09l-0.07,0.37
		c-0.09,0.5-0.18,0.9-0.29,1.27c-0.12,0.37-0.26,0.72-0.46,1.11c-0.15,0.29-0.48,0.52-0.87,0.63c-0.34,0.1-0.74,0.1-1.08-0.02
		c-0.51-0.19-0.85-0.43-1.09-0.7c-0.25-0.28-0.38-0.59-0.46-0.93l0.79-0.19c0.05,0.22,0.13,0.41,0.28,0.58
		c0.16,0.18,0.4,0.34,0.77,0.48c0.17,0.06,0.38,0.06,0.57,0c0.18-0.05,0.32-0.13,0.37-0.21c0.18-0.34,0.3-0.65,0.41-0.99
		c0.08-0.24,0.14-0.5,0.2-0.81c-0.21-0.06-0.4-0.12-0.58-0.18c-0.28-0.09-0.51-0.18-0.75-0.28L53.77,84.03L53.77,84.03z"/>
	<path class="st1" d="M57.25,86.92c0.32,0.01,0.64,0.03,0.96,0.06c0.35,0.03,0.71,0.08,1.06,0.14c-0.01-0.72-0.19-1.31-0.87-1.37
		c-0.02,0-0.04,0-0.06,0c-0.34,0-0.63,0.26-0.85,0.64C57.4,86.55,57.32,86.73,57.25,86.92L57.25,86.92z M58.14,87.78
		c-0.37-0.03-0.73-0.05-1.09-0.06c-0.02,0.12-0.04,0.25-0.05,0.37c-0.01,0.15-0.02,0.3-0.02,0.45l-0.81,0
		c0-0.17,0.01-0.35,0.03-0.52c0.07-0.74,0.27-1.48,0.59-2.04c0.36-0.63,0.89-1.05,1.55-1.05c0.04,0,0.09,0,0.13,0.01
		c1.83,0.17,1.68,1.89,1.55,3.38c-0.02,0.2-0.03,0.39-0.04,0.53l-0.81-0.05c0.01-0.21,0.03-0.38,0.04-0.55
		c0.01-0.11,0.02-0.21,0.03-0.32C58.87,87.87,58.5,87.82,58.14,87.78L58.14,87.78z"/>
	<polygon class="st1" points="61.94,85.32 61.98,86.32 63.69,84.82 64.22,85.43 62.95,86.55 64.49,88.06 63.93,88.64 62.33,87.09 
		62.03,87.35 62.09,88.69 61.28,88.72 61.13,85.36 61.94,85.32 	"/>
	<path class="st1" d="M65.87,87.88c-0.22-0.82-0.42-1.6-0.38-2.28c0.04-0.78,0.37-1.39,1.25-1.7c0.74-0.26,1.29,0.02,1.72,0.69
		c0.35,0.54,0.62,1.37,0.87,2.36l-0.79,0.2c-0.07-0.27-0.14-0.53-0.21-0.77l-1.86,0.55c0.06,0.24,0.12,0.49,0.19,0.74L65.87,87.88
		L65.87,87.88z M66.3,85.64c-0.01,0.15,0,0.31,0.02,0.48l1.74-0.52c-0.09-0.22-0.19-0.42-0.29-0.58c-0.21-0.33-0.46-0.48-0.77-0.37
		C66.51,84.84,66.33,85.19,66.3,85.64L66.3,85.64z"/>
	<path class="st1" d="M71.21,86.2l-1.65-2.62l-0.21-0.34l0.34-0.22c0.19-0.12,0.37-0.25,0.55-0.37c0.38-0.26,0.76-0.52,1.18-0.75
		c0.32-0.17,0.75-0.22,1.1-0.11c0.2,0.06,0.39,0.17,0.52,0.34c0.14,0.17,0.22,0.39,0.22,0.66c-0.01,0.22-0.08,0.48-0.24,0.79
		c0.11,0,0.22,0.01,0.32,0.03c0.41,0.06,0.79,0.22,1.15,0.44l-0.43,0.69c-0.26-0.17-0.54-0.28-0.84-0.33
		c-0.27-0.04-0.55-0.03-0.85,0.05c-0.19,0.2-0.38,0.36-0.58,0.49c-0.1,0.07-0.2,0.13-0.3,0.19l0.39,0.62L71.21,86.2L71.21,86.2z
		 M70.46,83.48l0.61,0.98c0.09-0.05,0.18-0.11,0.27-0.17c0.18-0.12,0.34-0.26,0.51-0.45c0.43-0.49,0.59-0.83,0.6-1.06
		c0-0.06-0.01-0.1-0.04-0.13c-0.03-0.03-0.07-0.06-0.13-0.08c-0.15-0.05-0.34-0.03-0.48,0.05c-0.37,0.2-0.74,0.45-1.11,0.7
		C70.62,83.38,70.54,83.43,70.46,83.48L70.46,83.48z"/>
	<path class="st1" d="M76.3,82.57c-0.31-0.44-0.63-0.84-0.96-1.21c-0.24-0.27-0.48-0.52-0.72-0.75l-0.69,0.62l-0.54-0.6l2.06-1.85
		l0.54,0.6l-0.77,0.69c0.24,0.24,0.48,0.49,0.72,0.76c0.35,0.39,0.69,0.81,1.02,1.28L76.3,82.57L76.3,82.57z"/>
	<path class="st1" d="M78.83,80.17c-0.13-0.12-0.27-0.23-0.42-0.36c-0.95-0.78-2.16-1.78-1.16-3.28c0.77-1.14,1.68-0.88,2.54-0.3
		c0.27,0.18,0.53,0.4,0.79,0.61c0.21,0.17,0.41,0.34,0.59,0.46l-0.45,0.67c-0.2-0.14-0.42-0.32-0.65-0.5l-0.03-0.02l-1.19,1.68
		l0.08,0.06c0.17,0.14,0.33,0.27,0.45,0.39L78.83,80.17L78.83,80.17z M77.93,76.98c-0.4,0.6-0.13,1.13,0.31,1.59l1.16-1.63
		c-0.02-0.01-0.04-0.03-0.06-0.04C78.84,76.57,78.33,76.4,77.93,76.98L77.93,76.98z"/>
	<path class="st1" d="M71.92,41.59c0.16-0.16,0.04-0.29,0.2-0.45c0.16-0.17,1.86-1.94,1.99-2.09c0.78-0.93,1.4-1.72,2.01-2.57
		c0.6-0.84,1.19-1.75,1.89-2.97c0.83-1.42,1.62-2.8,2.03-4.33c0.4-1.51,0.44-3.21-0.22-5.33c-0.45-1.46-1.34-2.55-2.58-3.37
		c-1.29-0.85-2.97-1.41-4.96-1.79c-2.45-0.47-4.2-1.07-5.77-1.61c-0.61-0.21-1.2-0.42-1.79-0.6c-0.96-0.29-1.83-0.76-2.6-1.35
		c-0.63-0.48-1.2-1.05-1.72-1.67c-0.51,0.63-1.08,1.19-1.71,1.67c-0.77,0.59-1.64,1.05-2.6,1.35c-0.59,0.18-1.18,0.39-1.79,0.6
		c-1.57,0.54-3.31,1.15-5.77,1.61c-1.99,0.38-3.67,0.94-4.96,1.79c-1.25,0.82-2.13,1.91-2.58,3.37c-0.66,2.12-0.62,3.82-0.22,5.33
		c0.4,1.53,1.2,2.91,2.03,4.33c0.71,1.21,1.3,2.13,1.89,2.97c0.61,0.85,1.23,1.63,2.01,2.57c0.31,0.37,0.68,0.75,1.08,1.13
		c0.16,0.15-0.12,0.45,0.04,0.6l0.11,0.11l-0.35,0.69l-0.11-0.11c-0.58-0.55-1.17-1.11-1.65-1.69c-0.8-0.97-1.45-1.77-2.07-2.64
		c-0.63-0.88-1.24-1.82-1.95-3.05c-0.87-1.49-1.7-2.93-2.15-4.62c-0.45-1.7-0.49-3.61,0.23-5.96c0.54-1.74,1.58-3.03,3.05-3.99
		c1.42-0.93,3.24-1.55,5.38-1.95c2.38-0.45,4.08-1.04,5.61-1.57c0.63-0.22,1.23-0.42,1.83-0.61c0.82-0.25,1.56-0.65,2.23-1.16
		c0.74-0.56,1.39-1.26,1.95-2.04l0.47-0.65l0.47,0.65c0.56,0.78,1.21,1.48,1.95,2.04c0.67,0.51,1.42,0.91,2.24,1.16
		c0.61,0.19,1.21,0.39,1.83,0.61c1.53,0.53,3.22,1.12,5.61,1.57c2.14,0.41,3.96,1.02,5.38,1.95c1.47,0.96,2.51,2.26,3.05,3.99
		c0.73,2.36,0.68,4.26,0.23,5.96c-0.45,1.69-1.28,3.13-2.15,4.62c-0.72,1.23-1.32,2.17-1.95,3.05c-0.62,0.87-1.26,1.67-2.07,2.64
		c-0.16,0.19-0.32,0.37-0.48,0.53c-0.07,0.07-0.43,0.44-0.83,0.86c-0.53,0.55,0.05-0.88-0.06-0.78L71.92,41.59L71.92,41.59z
		 M41.39,46.44c-0.09-0.21-0.94-0.24-1.01-0.4c-0.31-0.71-0.63-1.42-0.97-2.01c-0.62-1.05-1.14-1.9-1.74-2.76
		c-0.59-0.85-1.25-1.71-2.15-2.78c-1.06-1.26-2.09-2.47-3.39-3.37c-1.29-0.89-2.87-1.49-5.09-1.59c-1.53-0.07-2.85,0.4-4.04,1.29
		c-1.23,0.93-2.33,2.32-3.36,4.07c-1.27,2.16-2.42,3.59-3.46,4.89c-0.4,0.5-0.78,0.97-1.17,1.49c-0.6,0.8-1.33,1.46-2.15,1.99
		c-0.67,0.43-1.39,0.78-2.15,1.05c0.42,0.7,0.76,1.42,1,2.18c0.29,0.93,0.44,1.9,0.39,2.9c-0.03,0.63-0.04,1.25-0.04,1.89
		c-0.02,1.66-0.04,3.51-0.43,5.98c-0.32,2-0.36,3.78,0,5.28c0.35,1.45,1.08,2.65,2.3,3.57c1.77,1.33,3.39,1.87,4.94,2.01
		c1.59,0.14,3.15-0.14,4.76-0.44c1.37-0.25,2.42-0.5,3.43-0.78c1-0.28,1.95-0.61,3.1-1.03c0.66-0.24,1.45-0.61,2.22-0.97
		c0.59-0.27,1.44-0.63,1.98-0.85l0.23,0.57l-1.32,0.73c-0.35,0.14,0.66,0.13,0.17,0.34c-0.2,0.09-0.4,0.18-0.57,0.26
		c-0.78,0.36-1.58,0.73-2.32,1c-1.18,0.43-2.15,0.76-3.18,1.05c-1.03,0.29-2.12,0.54-3.53,0.81c-1.7,0.32-3.34,0.61-5.07,0.46
		c-1.75-0.15-3.56-0.75-5.54-2.24c-1.45-1.09-2.31-2.51-2.73-4.22c-0.4-1.66-0.36-3.58-0.02-5.72c0.38-2.39,0.4-4.19,0.42-5.81
		c0.01-0.67,0.01-1.31,0.04-1.93c0.04-0.86-0.08-1.69-0.34-2.5c-0.28-0.88-0.72-1.73-1.26-2.52L8.9,47.65l0.77-0.22
		c0.93-0.27,1.8-0.64,2.57-1.14c0.7-0.46,1.33-1.02,1.85-1.72c0.36-0.49,0.77-0.99,1.19-1.52c1.02-1.26,2.15-2.67,3.37-4.75
		c1.1-1.88,2.3-3.38,3.65-4.41c1.4-1.06,2.97-1.6,4.78-1.52c2.46,0.11,4.24,0.8,5.69,1.8c1.43,0.99,2.51,2.26,3.62,3.58
		c0.92,1.09,1.6,1.98,2.21,2.87c0.61,0.88,1.15,1.76,1.78,2.84c0.38,0.65,0.71,1.39,1.03,2.13c0.08,0.19,0.17,0.38,0.23,0.52
		L41.39,46.44L41.39,46.44z M44.59,43.82L44.59,43.82L44.59,43.82l-0.87-0.42l-3.47-4.85c-1.45-2-2.91-4-4.35-6.08l-0.13-0.19
		l-0.02-0.02c-1.05-1.19-2.49-2.08-4.11-2.66c-1.81-0.65-3.83-0.93-5.76-0.84c-1.93,0.09-3.75,0.75-5.34,1.74
		c-1.87,1.16-3.42,2.76-4.5,4.41c-0.97,1.47-1.67,2.66-2.29,3.73c-0.85,1.45-1.57,2.68-2.8,4.28c-0.86,1.12-1.3,2.08-2.31,2.69
		c-0.76,0.46-1.56,0.8-2.41,1.03c0.51,0.73,0.91,1.49,1.2,2.33c0.39,1.12,0.09,2.23,0.04,3.64c-0.06,2-0.29,3.41-0.56,5.08
		c-0.19,1.2-0.41,2.53-0.6,4.33c-0.21,1.96-0.03,4.19,0.67,6.27c0.6,1.77,1.58,3.44,3.02,4.74c1.46,1.32,3.21,2.43,5.03,3.11l0,0
		c1.59,0.59,3.24,0.84,4.78,0.59c0.25-0.07,0.5-0.14,0.75-0.22c2.43-0.87,4.8-1.52,7.16-2.17c2.16-0.67,4.32-1.33,6.41-1.94
		c0.39-0.11,0.59,0.27,0.97,0.16l0.34,0.06l0.09,0.5c-0.28,0.1-0.47,0.25-0.75,0.34c-2.22,0.76-4.38,1.35-6.55,1.94l-0.27,0.07
		l-0.11,0.03c-2.34,0.72-4.68,1.44-6.93,2.1c-1.33,0.67-2.49,1.94-3.44,3.47c-1.18,1.89-2.02,4.16-2.46,6.15
		c-0.41,1.9-0.23,3.82,0.32,5.61c0.64,2.1,1.8,4.01,3.11,5.49c1.19,1.34,2.15,2.3,3.01,3.17c1.19,1.2,2.2,2.21,3.42,3.8
		c0.86,1.13,1.44,2.23,1.77,3.37c0.25,0.85,0.37,1.71,0.38,2.59c0.83-0.31,1.68-0.5,2.56-0.57c1.18-0.09,2.42,0.05,3.77,0.46
		c1.91,0.57,3.22,1.15,4.77,1.84c1.1,0.49,2.33,1.04,4.03,1.69c1.84,0.71,4.04,1.1,6.23,0.96c1.87-0.12,3.73-0.64,5.35-1.7
		c1.64-1.07,3.17-2.47,4.29-4.06c0.98-1.39,1.65-2.92,1.79-4.47c-0.05-2.61-0.02-5.11,0-7.61c-0.02-1.89-0.04-3.79-0.02-5.74
		c0-0.62,0.49-0.72,0.5-1.35l0.25,0.28c0.01,0.72,0.45,0.58,0.45,1.29c0.01,1.87-0.01,3.69-0.02,5.52v0v0c0.02,2.49,0.05,4.99,0,7.6
		c0.15,1.56,0.81,3.08,1.79,4.47c1.12,1.59,2.65,2.99,4.29,4.06c1.62,1.06,3.48,1.58,5.35,1.7c2.19,0.15,4.39-0.25,6.23-0.96
		c1.71-0.65,2.93-1.2,4.03-1.69c1.55-0.69,2.86-1.27,4.77-1.84c1.36-0.41,2.6-0.55,3.77-0.46c0.88,0.07,1.73,0.26,2.56,0.57
		c0.01-0.89,0.13-1.74,0.38-2.59c0.34-1.13,0.91-2.24,1.77-3.37c1.22-1.59,2.23-2.6,3.42-3.8c0.86-0.87,1.82-1.83,3.02-3.17
		c1.31-1.47,2.46-3.39,3.11-5.49c0.55-1.79,0.73-3.71,0.31-5.61c-0.43-1.99-1.28-4.26-2.46-6.15c-0.95-1.53-2.11-2.8-3.44-3.47
		c-2.22-0.64-4.4-1.32-6.59-2l-0.12-0.04l-0.25-0.07c-2.28-0.62-5.21-1.46-7.72-2.37l0.17-0.34c0.86,0.14,1.35-0.42,1.49-0.38
		c2.17,0.64,4.6,1.41,6.58,2.03c2.19,0.59,4.39,1.2,6.8,2.06c0.25,0.07,0.5,0.14,0.75,0.22c1.54,0.25,3.19,0,4.78-0.59l0,0
		c1.82-0.68,3.57-1.8,5.03-3.11c1.44-1.3,2.42-2.96,3.02-4.74c0.7-2.08,0.88-4.31,0.67-6.27c-0.19-1.81-0.41-3.14-0.6-4.33
		c-0.27-1.67-0.5-3.08-0.56-5.08c-0.05-1.42-0.38-2.47,0.01-3.59c0.29-0.84,0.7-1.6,1.2-2.33c-0.85-0.24-1.65-0.57-2.41-1.03
		c-1.01-0.61-1.42-1.62-2.29-2.75c-1.23-1.6-1.95-2.82-2.8-4.28c-0.62-1.07-1.32-2.26-2.29-3.73c-1.09-1.65-2.64-3.25-4.5-4.41
		c-1.59-0.99-3.41-1.66-5.34-1.74c-1.96-0.09-4.02,0.16-5.86,0.8c-1.47,0.51-2.8,1.27-3.8,2.3c-0.06,0.13-0.13,0.25-0.2,0.37
		l-0.03,0.05l-7.88,11.01l-0.91,0.8l-0.84,0.66l0.19-0.62l0-0.01l0,0l0.01-0.01c0.34-0.49,0.01-0.68,0.35-1.17
		c1.17-1.67,2.36-3.34,3.54-5c1.54-2.17,3.08-4.33,4.56-6.47l0.04-0.05c0.06-0.07,0.13-0.14,0.19-0.21c0.6-1.27,0.85-2.74,0.84-4.26
		c-0.02-1.94-0.48-3.96-1.23-5.78c-0.74-1.79-1.97-3.28-3.44-4.44c-1.72-1.36-3.75-2.28-5.67-2.75c-1.75-0.43-3.08-0.68-4.28-0.9
		c-1.66-0.31-3.07-0.57-4.97-1.19c-1.35-0.44-2.45-1.26-3.37-2c-0.69-0.56-1.27-1.2-1.79-1.92c-0.51,0.73-1.1,1.37-1.79,1.92
		c-0.92,0.74-2.02,1.57-3.37,2c-1.9,0.61-3.31,0.88-4.97,1.19c-1.19,0.22-2.53,0.47-4.28,0.9c-1.92,0.47-3.95,1.39-5.67,2.75
		c-1.47,1.16-2.71,2.65-3.44,4.44c-0.74,1.81-1.21,3.84-1.23,5.78c-0.02,1.69,0.3,3.32,1.05,4.69l0.11,0.16l4.23,5.92l0.21,0.29
		c1.13,1.55,2.26,3.11,3.4,4.72c0,0,0.29,1.21,0.37,1.45L44.59,43.82L44.59,43.82z M18.48,77.98c-1.28-0.01-2.58-0.29-3.85-0.76v0
		c-1.96-0.73-3.84-1.93-5.4-3.33c-1.6-1.44-2.68-3.28-3.34-5.23c-0.76-2.24-0.95-4.64-0.73-6.76c0.19-1.81,0.41-3.17,0.61-4.39
		c0.26-1.63,0.48-3.01,0.55-4.93c0.04-1.27,0.36-2.25,0.02-3.23c-0.34-0.98-0.87-1.86-1.56-2.7L4.18,45.9l0.95-0.18
		c1.06-0.21,2.03-0.55,2.92-1.09c0.89-0.54,1.23-1.41,2-2.41c1.17-1.52,1.87-2.73,2.71-4.16c0.61-1.05,1.29-2.21,2.32-3.78
		c1.17-1.78,2.85-3.51,4.86-4.76c1.75-1.09,3.75-1.82,5.9-1.91c2.07-0.09,4.25,0.2,6.2,0.91c1.01,0.36,1.96,0.84,2.81,1.42
		c-0.24-0.96-0.34-1.98-0.33-3.01c0.02-2.09,0.52-4.27,1.31-6.21c0.82-1.99,2.18-3.63,3.79-4.9c1.86-1.47,4.05-2.46,6.11-2.97
		c1.78-0.43,3.13-0.69,4.34-0.91c1.62-0.3,2.99-0.56,4.82-1.15c1.21-0.39,2.19-1.15,3-1.8c0.81-0.66,1.46-1.45,2.01-2.37l0.49-0.83
		l0.49,0.83c0.55,0.93,1.2,1.72,2.01,2.37c0.81,0.66,1.79,1.41,3,1.8c1.84,0.59,3.2,0.85,4.83,1.15c1.21,0.23,2.56,0.48,4.34,0.91
		c2.06,0.5,4.26,1.5,6.11,2.97c1.61,1.28,2.98,2.92,3.79,4.9c0.8,1.94,1.29,4.11,1.31,6.21c0.01,0.97-0.08,1.93-0.29,2.85
		c0.82-0.54,1.73-0.97,2.69-1.31c1.98-0.69,4.19-0.95,6.28-0.86c2.15,0.1,4.15,0.83,5.9,1.91c2.01,1.25,3.68,2.98,4.86,4.76
		c1.03,1.57,1.71,2.73,2.33,3.78c0.84,1.43,1.54,2.64,2.71,4.16c0.78,1.01,1.08,1.92,1.98,2.47c0.89,0.54,1.85,0.88,2.92,1.09
		l0.95,0.18L116,46.7c-0.69,0.84-1.21,1.72-1.56,2.7c-0.34,0.98,0.01,1.91,0.05,3.18c0.06,1.93,0.28,3.3,0.55,4.93
		c0.2,1.22,0.42,2.58,0.61,4.39c0.22,2.11,0.03,4.51-0.73,6.76c-0.66,1.95-1.74,3.79-3.33,5.23c-1.56,1.4-3.43,2.6-5.4,3.33v0
		c-1.26,0.47-2.57,0.74-3.85,0.76c0.73,0.71,1.39,1.56,1.98,2.49c1.25,2.01,2.15,4.41,2.61,6.52c0.46,2.1,0.26,4.22-0.34,6.19
		c-0.69,2.26-1.94,4.33-3.35,5.91c-1.23,1.38-2.19,2.35-3.06,3.21c-1.16,1.17-2.15,2.16-3.32,3.69c-0.77,1.01-1.28,1.99-1.58,2.99
		c-0.3,1-0.38,2.02-0.31,3.1l0.06,0.96l-0.88-0.4c-0.98-0.45-1.97-0.73-3.01-0.81c-1.04-0.08-2.14,0.05-3.36,0.41
		c-1.85,0.56-3.12,1.12-4.63,1.79c-1.13,0.5-2.4,1.07-4.09,1.71c-1.99,0.76-4.35,1.18-6.72,1.03c-2.05-0.14-4.11-0.71-5.91-1.89
		c-1.76-1.15-3.4-2.65-4.6-4.36c-0.59-0.84-1.08-1.72-1.43-2.64c-0.35,0.92-0.84,1.81-1.43,2.64c-1.21,1.71-2.85,3.22-4.6,4.36
		c-1.8,1.17-3.85,1.75-5.91,1.89c-2.36,0.16-4.73-0.27-6.72-1.03c-1.69-0.65-2.96-1.21-4.09-1.71c-1.5-0.67-2.77-1.23-4.63-1.79
		c-1.22-0.36-2.32-0.49-3.36-0.41c-1.04,0.08-2.02,0.36-3.01,0.81l-0.88,0.4l0.06-0.96c0.07-1.08-0.01-2.11-0.31-3.1
		c-0.3-1-0.8-1.98-1.58-2.99c-1.18-1.53-2.16-2.52-3.32-3.69c-0.86-0.87-1.83-1.84-3.06-3.21c-1.42-1.59-2.66-3.65-3.35-5.91
		c-0.6-1.97-0.8-4.09-0.34-6.19c0.46-2.11,1.35-4.51,2.61-6.52C17.09,79.54,17.75,78.68,18.48,77.98L18.48,77.98z M56.3,92.47
		c0.05,0.31,0.43-0.81,0.47-0.5c0.07,0.53,0.19,1.41,0.2,1.55c0.11,1.24,0.19,2.27,0.21,3.34c0.02,1.09-0.02,2.2-0.12,3.62
		c-0.13,1.72-0.26,3.38-0.85,5.02c-0.6,1.66-1.64,3.26-3.58,4.78c-1.42,1.12-3.02,1.59-4.77,1.55c-1.71-0.04-3.55-0.57-5.54-1.44
		c-2.22-0.98-3.95-1.46-5.51-1.89c-0.66-0.18-1.28-0.36-1.86-0.54c-0.82-0.26-1.66-0.35-2.5-0.31c-0.93,0.04-1.85,0.25-2.76,0.57
		l-0.75,0.27l-0.02-0.8c-0.02-0.96-0.16-1.9-0.45-2.78c-0.26-0.8-0.65-1.55-1.18-2.23c-0.39-0.5-0.77-1.01-1.16-1.54
		c-0.96-1.31-2.02-2.75-3.72-4.47c-1.53-1.55-2.68-3.09-3.32-4.66c-0.66-1.63-0.79-3.28-0.25-5.01c0.74-2.35,1.86-3.9,3.19-5.05
		c1.32-1.13,2.82-1.85,4.39-2.58c1.29-0.61,2.33-1.04,3.34-1.41c1.02-0.37,2-0.66,3.19-1c0.71-0.2,2.33-0.45,3.13-0.58l-0.63,0.93
		l1.05,0.17l-0.24,0.04c-0.76,0.12-2.34,0.37-3,0.55c-1.19,0.33-2.15,0.62-3.12,0.97c-0.98,0.35-1.98,0.77-3.24,1.36
		c-1.49,0.7-2.92,1.38-4.13,2.42c-1.19,1.02-2.18,2.4-2.84,4.52c-0.46,1.46-0.35,2.86,0.22,4.24c0.58,1.43,1.65,2.85,3.07,4.29
		c1.76,1.78,2.85,3.27,3.84,4.6c0.38,0.52,0.75,1.02,1.14,1.51c0.62,0.79,1.07,1.66,1.38,2.59c0.25,0.75,0.4,1.54,0.46,2.35
		c0.78-0.23,1.57-0.37,2.36-0.4c0.97-0.05,1.95,0.06,2.9,0.36c0.63,0.2,1.21,0.36,1.82,0.53c1.6,0.44,3.38,0.94,5.66,1.94
		c1.86,0.82,3.56,1.31,5.1,1.35c1.49,0.03,2.84-0.36,4.04-1.31c1.74-1.38,2.68-2.8,3.21-4.26c0.53-1.49,0.66-3.07,0.79-4.72
		c0.1-1.4,0.14-2.49,0.12-3.52c-0.02-1.04-0.09-2.04-0.2-3.26c-0.01-0.13-0.22-1.71-0.25-1.88c-0.02-0.15-0.05-0.31-0.08-0.49
		l0.52-0.09L56.3,92.47L56.3,92.47z M65.02,91.62c-0.06,0.29,0.32,0.2,0.27,0.49c-0.23,1.29-0.38,2.48-0.44,3.67
		c-0.08,1.45-0.05,2.92,0.07,4.62c0.12,1.64,0.25,3.23,0.79,4.72c0.53,1.47,1.46,2.89,3.21,4.26c1.2,0.95,2.55,1.34,4.04,1.31
		c1.54-0.04,3.24-0.53,5.1-1.35c2.28-1.01,4.06-1.5,5.66-1.94c0.61-0.17,1.19-0.33,1.82-0.53c0.95-0.3,1.93-0.41,2.9-0.36
		c0.79,0.04,1.58,0.18,2.36,0.4c0.07-0.81,0.22-1.6,0.46-2.35c0.3-0.93,0.75-1.8,1.38-2.59c0.39-0.49,0.75-0.99,1.14-1.51
		c0.98-1.34,2.07-2.82,3.84-4.6c1.42-1.44,2.49-2.86,3.07-4.29c0.56-1.38,0.67-2.78,0.22-4.24c-0.66-2.12-1.66-3.5-2.84-4.52
		c-1.21-1.03-2.64-1.72-4.13-2.42c-1.26-0.59-2.27-1.01-3.24-1.36c-0.97-0.35-1.93-0.64-3.12-0.97c-0.66-0.19-3.14-0.6-3.9-0.71
		l-0.18-0.03c-0.07-0.15,1.52,0.06,1.65-0.37c0.02-0.07-0.23-0.49-0.27-0.57c1.07,0.18,2.5,0.43,3.01,0.58
		c1.19,0.33,2.17,0.63,3.19,1c1.01,0.37,2.04,0.8,3.34,1.41c1.56,0.73,3.07,1.45,4.39,2.58c1.34,1.15,2.46,2.69,3.19,5.05
		c0.54,1.73,0.42,3.39-0.25,5.01c-0.64,1.58-1.79,3.12-3.32,4.66c-1.7,1.72-2.76,3.17-3.72,4.47c-0.39,0.54-0.77,1.05-1.16,1.54
		c-0.53,0.67-0.92,1.43-1.18,2.23c-0.29,0.88-0.43,1.82-0.45,2.78l-0.02,0.8l-0.75-0.27c-0.91-0.32-1.83-0.53-2.76-0.57
		c-0.84-0.04-1.68,0.05-2.5,0.31c-0.57,0.18-1.2,0.35-1.86,0.54c-1.56,0.43-3.29,0.91-5.51,1.89c-1.99,0.88-3.83,1.4-5.54,1.44
		c-1.76,0.04-3.35-0.43-4.77-1.55c-1.93-1.53-2.98-3.12-3.58-4.78c-0.59-1.64-0.73-3.3-0.85-5.02c-0.13-1.74-0.16-3.25-0.07-4.77
		c0.06-1,0.17-1.99,0.33-3.03c0.08-0.54,0.63-0.88,0.74-1.46L65.02,91.62L65.02,91.62z M79.34,46.23c0.13-0.29,0.23-0.5,0.32-0.72
		c0.07-0.16-0.13-0.25-0.06-0.42c0.26-0.57,0.52-1.13,0.81-1.64c0.64-1.08,1.17-1.96,1.78-2.84c0.62-0.89,1.3-1.78,2.21-2.87
		c1.11-1.32,2.19-2.59,3.62-3.58c1.45-1,3.23-1.68,5.69-1.8c1.81-0.08,3.38,0.47,4.79,1.52c1.36,1.03,2.55,2.53,3.65,4.41
		c1.22,2.08,2.35,3.48,3.37,4.75c0.42,0.53,0.83,1.03,1.19,1.52c0.52,0.69,1.14,1.26,1.85,1.72c0.77,0.5,1.65,0.88,2.58,1.14
		l0.77,0.22l-0.45,0.66c-0.54,0.79-0.98,1.64-1.26,2.52c-0.26,0.81-0.38,1.64-0.34,2.5c0.03,0.62,0.04,1.26,0.04,1.93
		c0.02,1.62,0.04,3.41,0.42,5.81c0.34,2.15,0.37,4.07-0.02,5.72c-0.41,1.71-1.27,3.13-2.73,4.22c-1.97,1.48-3.78,2.08-5.54,2.24
		c-1.72,0.15-3.37-0.15-5.07-0.46c-1.41-0.26-2.5-0.51-3.53-0.81c-1.03-0.29-2-0.63-3.18-1.05c-0.7-0.26-1.42-0.63-2.13-1
		c-0.19-0.1-0.45-0.11-0.56-0.29c-0.11-0.18-0.49-0.71-0.86-0.86l0.68-0.3c0.42,0.17,0.34-0.04,0.78,0.18
		c0.16,0.08,0.32,0.17,0.49,0.25c0.68,0.36,1.36,0.71,1.98,0.94c1.15,0.42,2.09,0.74,3.1,1.03c1.01,0.28,2.06,0.53,3.43,0.78
		c1.62,0.3,3.18,0.58,4.76,0.44c1.56-0.13,3.17-0.67,4.94-2.01c1.22-0.92,1.95-2.12,2.3-3.57c0.36-1.5,0.32-3.27,0.01-5.28
		c-0.39-2.47-0.41-4.31-0.43-5.98c-0.01-0.64-0.01-1.25-0.04-1.89c-0.05-1,0.1-1.97,0.39-2.9c0.24-0.75,0.58-1.48,1-2.18
		c-0.76-0.27-1.49-0.62-2.15-1.05c-0.82-0.53-1.55-1.19-2.15-1.99c-0.39-0.52-0.77-0.99-1.17-1.49c-1.04-1.29-2.19-2.72-3.46-4.89
		c-1.03-1.75-2.12-3.14-3.36-4.07c-1.19-0.9-2.52-1.36-4.04-1.29c-2.22,0.1-3.81,0.71-5.09,1.59c-1.3,0.9-2.33,2.11-3.39,3.37
		c-0.9,1.07-1.56,1.94-2.15,2.78c-0.59,0.86-1.12,1.71-1.74,2.76c-0.34,0.58-0.66,1.3-0.97,2.01c-0.12,0.27-0.9,0.36-0.99,0.55
		L79.34,46.23L79.34,46.23z"/>
	<path class="st1" d="M91.98,27.72c0.78-3.01,1.2-5.27,0.91-8.18c-2.39,0.67-4.65,1.73-7.13,3.48l-0.34-1.16
		c2.45-1.66,4.96-2.9,7.86-3.6l0.62-0.14l0.08,0.63c0.37,2.93,0.18,5.85-0.83,8.86L91.98,27.72L91.98,27.72z"/>
	<path class="st1" d="M105.51,83.7c3.11-0.17,5.39-0.46,8.07-1.63c-1.36-2.07-3.07-3.9-5.49-5.73l1-0.68
		c2.33,1.83,4.28,3.84,5.82,6.38l0.32,0.54l-0.58,0.27c-2.68,1.24-5.52,1.96-8.69,1.91L105.51,83.7L105.51,83.7z"/>
	<path class="st1" d="M56.44,113.32c1.07,2.93,2.02,5.06,3.92,7.29c1.58-1.91,3.1-4.47,3.99-7.3l0.95,0.78
		c-0.65,2.13-2.55,5.56-4.53,7.79l-0.43,0.46l-0.42-0.47c-1.97-2.2-3.49-4.76-4.37-7.81L56.44,113.32L56.44,113.32z"/>
	<path class="st1" d="M13.2,76.31c-2.53,1.81-4.3,3.27-5.94,5.7c2.26,1.02,4.68,1.65,7.71,1.9l-0.48,1.11
		c-2.94-0.3-5.67-0.96-8.34-2.28l-0.56-0.29l0.34-0.53c1.6-2.48,3.61-4.6,6.32-6.27L13.2,76.31L13.2,76.31z"/>
	<path class="st1" d="M35.06,23.7c-2.47-1.9-4.39-3.16-7.18-4.02c-0.32,2.46-0.21,5.04,0.44,8.01l-1.16-0.08
		c-0.61-2.93-0.78-5.83-0.3-8.77l0.11-0.62l0.61,0.17c2.84,0.8,5.46,2.11,7.84,4.22L35.06,23.7L35.06,23.7z"/>
	<path class="st0" d="M60.41,62.84c1.17,0,2.13,0.96,2.13,2.13c0,1.17-0.96,2.13-2.13,2.13c-1.17,0-2.13-0.96-2.13-2.13
		C58.28,63.8,59.23,62.84,60.41,62.84L60.41,62.84z M60.41,61.94c1.67,0,3.03,1.37,3.03,3.04c0,1.67-1.36,3.03-3.03,3.03
		c-1.67,0-3.03-1.36-3.03-3.03C57.37,63.3,58.74,61.94,60.41,61.94L60.41,61.94z"/>
	<path class="st0" d="M60.41,59.12c3.23,0,5.86,2.63,5.86,5.85c0,3.22-2.63,5.85-5.86,5.85c-3.23,0-5.86-2.63-5.86-5.85
		C54.55,61.75,57.18,59.12,60.41,59.12L60.41,59.12z M60.41,58.16c3.76,0,6.82,3.06,6.82,6.81c0,3.75-3.06,6.81-6.82,6.81
		c-3.76,0-6.82-3.06-6.82-6.81C53.59,61.22,56.65,58.16,60.41,58.16L60.41,58.16z"/>
	<path class="st0" d="M60.41,56.53c4.65,0,8.45,3.79,8.45,8.44c0,4.65-3.8,8.45-8.45,8.45c-4.65,0-8.45-3.79-8.45-8.45
		C51.96,60.32,55.75,56.53,60.41,56.53L60.41,56.53z M60.41,55.86c5.02,0,9.12,4.09,9.12,9.11c0,5.02-4.1,9.11-9.12,9.11
		c-5.02,0-9.12-4.1-9.12-9.11C51.29,59.96,55.39,55.86,60.41,55.86L60.41,55.86z"/>
	<path class="st1" d="M44.35,84.94c-0.81,0.81-1.65,1.58-2.49,2.36c-1.92,1.76-3.84,3.53-5.27,5.66c-1.1,1.65-1.67,3.6-2.23,5.55
		c-0.2,0.7-0.4,1.39-0.63,2.08c0.61-0.39,1.22-0.76,1.84-1.13c1.74-1.04,3.48-2.08,4.82-3.54c1.74-1.89,3.02-4.16,4.31-6.42
		c0.58-1.02,1.16-2.04,1.78-3.02C45.75,86.01,45.03,85.49,44.35,84.94L44.35,84.94z M44.01,91.95c-0.38,0.72-0.69,1.42-0.9,2.14
		c-0.15,0.52-0.26,1.04-0.31,1.58c1.16-0.82,2.14-1.93,3.01-3.24c0.95-1.42,1.79-3.07,2.64-4.79c-0.5-0.26-0.98-0.54-1.46-0.83
		c-0.62,0.98-1.19,1.99-1.76,3c-0.41,0.72-0.81,1.43-1.24,2.14L44.01,91.95L44.01,91.95z M49,87.93c-0.28,0.56-0.55,1.12-0.83,1.66
		c-0.31,0.71-0.51,1.45-0.64,2.2c-0.11,0.64-0.17,1.27-0.18,1.87c0.57-0.63,1.03-1.33,1.41-2.12c0.45-0.93,0.84-2.2,1.07-3.21
		C49.55,88.19,49.27,88.06,49,87.93L49,87.93z M46.9,91.88c-0.19,0.31-0.38,0.6-0.57,0.89c-1.04,1.55-2.22,2.86-3.7,3.75l-0.47,0.28
		l0.01-0.55c0.01-0.63,0.09-1.23,0.23-1.83c-0.48,0.67-0.99,1.31-1.55,1.92c-1.4,1.52-3.18,2.59-4.96,3.65
		c-1.29,0.77-2.4,1.49-3.6,2.39c0.71-1.42,1.05-2.51,1.49-4.04c0.58-2,1.16-3.99,2.31-5.72c0.43-0.64,0.9-1.25,1.4-1.83
		c-0.49,0.24-1.01,0.44-1.56,0.59l-0.53,0.14L35.55,91c0.4-1.32,1.1-2.52,2.01-3.66c-0.03,0.01-0.06,0.02-0.09,0.03
		c-0.47,0.14-0.93,0.21-1.39,0.26l-0.68,0.08l0.4-0.56c0.48-0.69,0.99-1.32,1.54-1.93c-0.3,0.07-0.6,0.12-0.9,0.15l-0.66,0.07
		l0.37-0.55c0.51-0.76,1.09-1.5,1.77-2.2c-0.45,0.16-0.92,0.28-1.39,0.35l-0.61,0.09l0.3-0.54c0.33-0.59,0.74-1.13,1.22-1.62
		c-0.44,0.13-0.89,0.21-1.34,0.21l-0.52,0.01l0.24-0.46c0.27-0.5,0.61-0.97,1.01-1.39c-0.3,0.05-0.6,0.08-0.9,0.07l-0.48-0.01
		l0.21-0.43c0.25-0.51,0.6-0.94,1.02-1.31c-0.42,0.05-0.84,0.06-1.29,0.03l-0.43-0.03l0.17-0.39c0.2-0.48,0.49-0.9,0.86-1.26
		c0.02-0.02,0.03-0.03,0.05-0.05c-0.35,0.03-0.71,0.02-1.07-0.03l-0.43-0.05l0.2-0.39c0.18-0.36,0.44-0.68,0.75-0.96
		c-0.36-0.04-0.72-0.15-1.07-0.31l-0.32-0.15l0.2-0.29c0.22-0.32,0.48-0.6,0.76-0.85c-0.39-0.05-0.78-0.19-1.17-0.37l-0.37-0.17
		l0.27-0.31c0.19-0.21,0.4-0.4,0.63-0.58c-0.35-0.05-0.7-0.15-1.05-0.32L32.99,71l0.29-0.31c0.24-0.25,0.51-0.48,0.81-0.68
		c-0.37-0.03-0.74-0.1-1.12-0.22l-0.52-0.16l0.41-0.37c0.35-0.32,0.74-0.59,1.15-0.82l0.06-0.03c-0.06-0.01-0.12-0.02-0.17-0.02
		c-0.51-0.08-1.02-0.2-1.54-0.37l-0.6-0.2l0.53-0.35c0.39-0.26,0.81-0.48,1.25-0.67c-0.06-0.01-0.12-0.02-0.17-0.03
		c-0.64-0.11-1.27-0.29-1.9-0.55l-0.6-0.25l0.57-0.31c0.45-0.24,0.91-0.42,1.39-0.56c-0.77-0.13-1.56-0.34-2.36-0.65l-0.53-0.21
		l0.47-0.33c0.27-0.19,0.57-0.35,0.88-0.49c-0.68-0.15-1.37-0.38-2.06-0.71l-0.66-0.32l0.69-0.25c0.46-0.16,0.93-0.29,1.4-0.4
		c-0.86-0.14-1.76-0.38-2.74-0.82l-0.5-0.23l0.46-0.31c0.23-0.16,0.53-0.3,0.86-0.4c-1.39-0.42-2.65-1.01-3.73-1.86l-0.43-0.34
		l0.52-0.18c0.59-0.21,1.18-0.35,1.79-0.43c-0.79-0.21-1.57-0.47-2.33-0.78c-1.92-0.78-3.54-2.07-5.16-3.36
		c-1.13-0.9-2.15-1.67-3.36-2.44c1.44,0.05,2.71-0.01,4.15-0.12c2.07-0.16,4.14-0.32,6.16,0.15c0.75,0.18,1.48,0.4,2.2,0.66
		c-0.4-0.38-0.77-0.79-1.1-1.25l-0.32-0.45l0.55-0.04c1.63-0.11,3.25,0.25,4.9,0.87l-0.05-0.06c-0.3-0.38-0.55-0.78-0.75-1.19
		l-0.28-0.57l0.62,0.14c1.01,0.23,1.96,0.54,2.87,0.93l-0.03-0.05c-0.33-0.44-0.59-0.89-0.77-1.35l-0.25-0.62l0.63,0.21
		c1.02,0.34,1.98,0.82,2.93,1.34c-0.44-0.54-0.8-1.12-1.07-1.78l-0.23-0.57l0.59,0.16c0.61,0.17,1.21,0.44,1.81,0.78
		c-0.24-0.35-0.44-0.71-0.59-1.08l-0.21-0.53l0.55,0.11c0.61,0.13,1.17,0.35,1.68,0.63c-0.17-0.32-0.32-0.69-0.44-1.12l-0.14-0.51
		l0.51,0.13c0.41,0.1,0.8,0.28,1.17,0.5c-0.12-0.27-0.23-0.56-0.31-0.87l-0.12-0.48l0.48,0.11c0.4,0.09,0.76,0.23,1.1,0.42
		c-0.13-0.29-0.25-0.61-0.33-0.96l-0.12-0.5l0.5,0.14c0.5,0.14,0.91,0.34,1.28,0.6c-0.1-0.41-0.16-0.84-0.19-1.28l-0.03-0.66
		l0.52,0.4c0.16,0.12,0.33,0.25,0.5,0.39c-0.1-0.35-0.12-0.71-0.02-1.08l0.08-0.31l0.31,0.09c0.29,0.09,0.54,0.22,0.76,0.38
		c-0.03-0.19-0.05-0.4-0.05-0.64l0-0.42l0.4,0.12c0.32,0.1,0.59,0.27,0.85,0.48c-0.08-0.32-0.12-0.67-0.13-1.06l0-0.51l0.45,0.23
		c0.23,0.12,0.43,0.25,0.6,0.39c-0.06-0.35-0.07-0.72-0.02-1.11l0.05-0.46l0.4,0.23c0.34,0.2,0.63,0.43,0.9,0.7
		c-0.09-0.47-0.14-0.95-0.15-1.43l-0.01-0.6l0.49,0.35c0.36,0.25,0.66,0.54,0.93,0.83c-0.14-0.58-0.21-1.19-0.17-1.84l0.03-0.5
		l0.43,0.26c0.53,0.31,0.98,0.71,1.38,1.17l-0.01-0.03c-0.19-0.93-0.24-1.89-0.19-2.85l0.03-0.58l0.46,0.35
		c0.45,0.34,0.82,0.73,1.13,1.16c-0.01-0.44-0.01-0.88,0.02-1.32c0.05-0.86,0.17-1.7,0.42-2.52l0.14-0.47l0.36,0.34
		c0.41,0.39,0.76,0.91,1.06,1.51c-0.11-1.81,0.03-3.51,0.63-5.07l0.2-0.51l0.33,0.44c0.34,0.45,0.63,0.93,0.87,1.42
		c-0.04-0.77-0.03-1.53,0.02-2.3c0.15-2.07,0.92-4,1.69-5.93c0.48-1.2,0.88-2.4,1.35-3.6c0.47,1.19,0.86,2.4,1.33,3.6
		c0.75,1.93,1.5,3.86,1.67,5.92c0.07,0.82,0.07,1.64,0.04,2.46c0.25-0.55,0.56-1.07,0.94-1.58l0.33-0.44l0.2,0.51
		c0.53,1.38,0.7,2.88,0.66,4.46c0.22-0.38,0.45-0.71,0.7-0.93l0.42-0.38l0.09,0.56c0.13,0.85,0.19,1.73,0.19,2.6
		c0,0.32,0,0.63-0.01,0.95c0.31-0.59,0.7-1.1,1.18-1.51l0.5-0.43l0,0.66c0,0.78-0.04,1.58-0.13,2.38c0.23-0.35,0.51-0.69,0.84-1.04
		l0.47-0.48l0.05,0.67c0.07,0.82,0.02,1.63-0.1,2.42c-0.02,0.16-0.05,0.31-0.08,0.47c0.35-0.48,0.75-0.95,1.2-1.41l0.49-0.49
		l0.04,0.69c0.03,0.51-0.02,0.97-0.1,1.42c0.24-0.26,0.5-0.49,0.78-0.69l0.5-0.36l-0.02,0.62c-0.02,0.59-0.08,1.15-0.18,1.69
		c0.34-0.33,0.71-0.62,1.09-0.83l0.43-0.24l0.03,0.49c0.02,0.43-0.02,0.84-0.09,1.24c0.21-0.18,0.46-0.35,0.76-0.49l0.41-0.19
		l0.02,0.45c0.02,0.38-0.01,0.75-0.08,1.11c0.25-0.2,0.51-0.37,0.77-0.5l0.38-0.2l0.06,0.42c0.07,0.52,0,1.03-0.13,1.54
		c0.05-0.04,0.11-0.08,0.16-0.12c0.33-0.24,0.67-0.44,1.02-0.57l0.46-0.18l-0.05,0.49c-0.04,0.42-0.17,0.85-0.33,1.26
		c0.03-0.02,0.07-0.05,0.1-0.07c0.36-0.23,0.77-0.45,1.19-0.61l0.48-0.19L79,44.3c-0.04,0.32-0.14,0.62-0.25,0.9
		c0.31-0.16,0.64-0.29,0.99-0.37l0.46-0.11l-0.09,0.47c-0.06,0.3-0.15,0.59-0.28,0.87c0.38-0.2,0.78-0.34,1.21-0.41l0.43-0.07
		l-0.08,0.43c-0.07,0.37-0.18,0.71-0.33,1.04c0.47-0.29,0.96-0.53,1.44-0.72l0.52-0.2l-0.11,0.55c-0.09,0.48-0.27,0.91-0.49,1.29
		c0.68-0.38,1.36-0.67,1.99-0.82l0.51-0.12l-0.15,0.5c-0.16,0.56-0.46,1.07-0.84,1.55c0.81-0.44,1.64-0.78,2.49-1.03l0.66-0.19
		l-0.3,0.62c-0.23,0.47-0.5,0.91-0.81,1.33c0.19-0.09,0.38-0.18,0.58-0.27c0.72-0.31,1.45-0.56,2.22-0.73l0.51-0.11l-0.15,0.5
		c-0.14,0.47-0.35,0.91-0.64,1.3l0,0c1.52-0.54,3.03-0.83,4.53-0.73l0.55,0.04l-0.32,0.45c-0.33,0.46-0.7,0.88-1.1,1.25
		c0.72-0.26,1.45-0.49,2.2-0.66c2.02-0.47,4.09-0.31,6.16-0.15c1.29,0.1,2.54,0.14,3.82,0.2c-0.97,0.83-2.02,1.56-3.03,2.36
		c-1.62,1.29-3.23,2.58-5.16,3.36c-0.76,0.31-1.54,0.56-2.33,0.78c0.6,0.08,1.19,0.22,1.79,0.43l0.52,0.19l-0.43,0.34
		c-1.29,1.02-2.84,1.66-4.56,2.09c0.16,0.04,0.32,0.08,0.47,0.11l0,0c0.56,0.14,1.03,0.29,1.4,0.45l0.66,0.29l-0.67,0.27
		c-1.05,0.42-2.16,0.68-3.29,0.85c0.73,0.13,1.38,0.34,1.92,0.66l0.59,0.36l-0.66,0.2c-0.96,0.29-1.8,0.46-2.57,0.57
		c0.52,0.16,1.01,0.39,1.47,0.72L91,65.28l-0.64,0.16c-0.75,0.18-1.49,0.3-2.23,0.37c0.5,0.18,0.96,0.4,1.36,0.71l0.52,0.39
		l-0.63,0.15c-0.58,0.14-1.16,0.22-1.73,0.25c0.46,0.22,0.87,0.52,1.18,0.92l0.28,0.36l-0.44,0.12c-0.4,0.11-0.82,0.17-1.24,0.18
		c0.31,0.2,0.55,0.42,0.66,0.69l0.13,0.3l-0.3,0.11c-0.32,0.12-0.67,0.19-1.02,0.22c0.36,0.22,0.67,0.48,0.89,0.82l0.2,0.32
		l-0.35,0.13c-0.4,0.15-0.82,0.23-1.28,0.25c0.31,0.22,0.56,0.47,0.74,0.75l0.21,0.32l-0.36,0.13c-0.37,0.13-0.77,0.21-1.19,0.23
		l0.01,0.01c0.42,0.29,0.79,0.62,1.03,1.02l0.22,0.36l-0.41,0.1c-0.45,0.11-0.94,0.14-1.41,0.13c0.35,0.28,0.63,0.6,0.81,0.98
		l0.17,0.37l-0.4,0.07c-0.28,0.05-0.56,0.06-0.85,0.05c0.24,0.18,0.45,0.38,0.63,0.62l0.27,0.35l-0.42,0.13
		c-0.44,0.13-0.87,0.16-1.3,0.11l0.04,0.03c0.39,0.36,0.73,0.76,0.97,1.2l0.23,0.42l-0.47,0.04c-0.35,0.03-0.7,0.03-1.05,0.01
		c0.47,0.32,0.88,0.66,1.19,1.06l0.39,0.5l-0.63,0c-0.44,0-0.87-0.05-1.3-0.13c0.49,0.42,0.92,0.9,1.27,1.45l0.32,0.49l-0.58-0.02
		c-0.52-0.01-1.03-0.1-1.53-0.25c0.65,0.62,1.23,1.28,1.7,2l0.39,0.6l-0.7-0.13c-0.53-0.1-1.05-0.23-1.56-0.39
		c0.19,0.22,0.38,0.44,0.56,0.67c0.64,0.81,1.16,1.69,1.75,2.53c-1.05-0.25-1.98-0.51-2.98-0.94c1.19,1.46,2.44,3.21,3.34,4.9
		c-0.83-0.23-1.35-0.48-2.13-0.88c0.56,0.64,1.09,1.31,1.57,2.03c1.15,1.73,1.73,3.72,2.31,5.72c0.43,1.47,0.8,2.65,1.43,4.04
		c-1.18-0.95-2.24-1.62-3.55-2.4c-1.78-1.06-3.56-2.12-4.96-3.65c-0.56-0.61-1.07-1.25-1.55-1.92c0.14,0.59,0.22,1.2,0.23,1.83
		l0.01,0.55l-0.47-0.28c-1.46-0.88-2.64-2.17-3.68-3.71c0,0.1,0.01,0.2,0,0.3c-0.01,0.53-0.07,1.02-0.19,1.47l-0.16,0.59l-0.38-0.48
		c-0.77-0.98-1.45-2.02-2.03-3.13c-0.03-0.05-0.05-0.09-0.07-0.14c0.13,1.08,0.16,2.11-0.05,3.18c-0.79-0.73-1.27-1.6-1.72-2.57
		c0,0.58-0.05,1.12-0.15,1.62l-0.15,0.66l-0.4-0.55c-0.47-0.65-0.88-1.34-1.19-2.1c-0.07,0.48-0.2,0.96-0.38,1.44l-0.2,0.53
		l-0.33-0.46c-0.37-0.51-0.65-1.08-0.85-1.7c-0.11,0.48-0.25,0.95-0.46,1.4l-0.21,0.47l-0.31-0.41c-0.26-0.33-0.47-0.69-0.64-1.08
		c-0.11,0.34-0.25,0.65-0.41,0.95l-0.27,0.49l-0.27-0.49c-0.15-0.27-0.29-0.55-0.4-0.88c-0.09,0.27-0.2,0.53-0.34,0.78l-0.22,0.41
		l-0.29-0.37c-0.18-0.23-0.35-0.47-0.49-0.77c-0.1,0.36-0.25,0.69-0.46,1l-0.26,0.37l-0.25-0.38c-0.17-0.26-0.38-0.58-0.56-1.02
		c-0.06-0.13-0.11-0.27-0.16-0.42c-0.01,0.02-0.01,0.04-0.02,0.05c-0.15,0.44-0.36,0.83-0.66,1.13l-0.24,0.25l-0.22-0.28
		c-0.24-0.31-0.41-0.66-0.52-1.05l-0.01,0.03c-0.2,0.46-0.42,0.89-0.68,1.27l-0.32,0.48l-0.22-0.53c-0.14-0.34-0.25-0.7-0.32-1.08
		c-0.19,0.36-0.42,0.7-0.71,1l-0.34,0.37l-0.17-0.47c-0.11-0.3-0.19-0.62-0.25-0.96l-0.02,0.03c-0.26,0.56-0.58,1-1,1.3l-0.36,0.26
		l-0.11-0.43c-0.1-0.37-0.17-0.73-0.22-1.1c-0.24,0.61-0.55,1.16-1,1.63L52.6,93.9l-0.1-0.6c-0.09-0.51-0.13-1.03-0.14-1.55
		c-0.04,0.08-0.07,0.15-0.11,0.23c-0.38,0.78-0.82,1.37-1.34,1.76l-0.48,0.36l-0.01-0.59c-0.01-0.36,0.01-0.75,0.05-1.16
		c-0.47,0.89-0.87,1.51-1.55,2.23c-0.07-0.59-0.15-1.16-0.16-1.76c-0.42,0.67-0.92,1.27-1.51,1.82l-0.5,0.47l-0.01-0.69
		C46.72,93.62,46.76,92.76,46.9,91.88L46.9,91.88z M50.4,88.57c-0.25,1.08-0.55,2.04-0.94,2.91c-0.07,0.42-0.09,0.8-0.1,1.16
		c0,0.13,0,0.25,0.01,0.37c0.31-0.48,0.6-1.01,0.87-1.59c0.35-0.74,0.68-1.54,0.98-2.41l0.03-0.1
		C50.97,88.81,50.68,88.69,50.4,88.57L50.4,88.57z M73.89,91.58c-0.68-1.16-1.32-2.41-1.95-3.71c-0.26,0.13-0.53,0.26-0.8,0.39
		c0.36,1.05,0.8,2.06,1.31,3.02c0.46,0.87,0.98,1.7,1.57,2.5c0.03-0.21,0.04-0.44,0.05-0.67C74.05,92.64,74,92.13,73.89,91.58
		L73.89,91.58z M72.47,87.58c0.86,1.74,1.7,3.41,2.67,4.85c0.88,1.31,1.85,2.42,3.01,3.24c-0.05-0.54-0.15-1.06-0.31-1.58
		c-0.21-0.71-0.51-1.41-0.9-2.14l0.01-0.01c-0.42-0.7-0.83-1.42-1.24-2.14c-0.59-1.03-1.17-2.06-1.8-3.06
		C73.45,87.04,72.97,87.32,72.47,87.58L72.47,87.58z M51.83,89.13l-0.02,0.05c-0.26,0.8-0.46,1.53-0.58,2.2
		c-0.09,0.5-0.15,0.96-0.18,1.39c0.23-0.29,0.45-0.64,0.65-1.05c0.31-0.63,0.59-1.4,0.87-2.32C52.32,89.3,52.07,89.21,51.83,89.13
		L51.83,89.13z M53.19,89.57c-0.11,0.57-0.18,1.11-0.21,1.65c-0.02,0.43-0.01,0.85,0.03,1.27c0.46-0.72,0.71-1.61,1-2.63
		c0.01-0.03,0-0.02,0.02-0.05C53.74,89.73,53.46,89.65,53.19,89.57L53.19,89.57z M54.65,89.95c-0.07,0.44-0.09,0.86-0.07,1.27
		c0.02,0.35,0.06,0.69,0.13,1.04c0.17-0.2,0.31-0.44,0.44-0.72c0.18-0.39,0.33-0.86,0.46-1.39C55.29,90.09,54.97,90.02,54.65,89.95
		L54.65,89.95z M56.28,90.27c-0.03,0.37-0.03,0.72,0.01,1.04c0.02,0.23,0.06,0.46,0.11,0.67c0.15-0.22,0.28-0.44,0.38-0.68
		c0.13-0.29,0.23-0.59,0.3-0.9C56.81,90.35,56.54,90.31,56.28,90.27L56.28,90.27z M57.72,90.46c-0.02,0.36-0.01,0.69,0.03,1.01
		c0.03,0.2,0.07,0.4,0.12,0.59c0.1-0.2,0.2-0.4,0.29-0.62c0.12-0.29,0.23-0.59,0.33-0.91C58.24,90.51,57.98,90.49,57.72,90.46
		L57.72,90.46z M59.21,90.57c0,0.29,0.03,0.56,0.09,0.81c0.05,0.22,0.13,0.42,0.23,0.6c0.11-0.18,0.2-0.38,0.28-0.59
		c0.09-0.25,0.16-0.51,0.21-0.8C59.75,90.59,59.48,90.58,59.21,90.57L59.21,90.57z M60.79,90.6c0.09,0.46,0.21,0.82,0.34,1.13
		c0.08,0.19,0.16,0.35,0.24,0.49c0.21-0.49,0.3-1.06,0.37-1.65C61.42,90.58,61.1,90.59,60.79,90.6L60.79,90.6z M62.39,90.52
		c0.01,0.42,0.07,0.74,0.17,1.01c0.06,0.16,0.13,0.3,0.21,0.44c0.09-0.22,0.16-0.45,0.2-0.68c0.05-0.26,0.08-0.54,0.09-0.82
		C62.85,90.49,62.62,90.51,62.39,90.52L62.39,90.52z M63.71,90.39c0.05,0.4,0.12,0.76,0.22,1.07c0.05,0.18,0.11,0.34,0.18,0.5
		c0.08-0.22,0.16-0.44,0.21-0.68c0.07-0.3,0.13-0.61,0.16-0.94c0-0.02,0-0.04,0-0.06C64.22,90.32,63.96,90.36,63.71,90.39
		L63.71,90.39z M65.1,90.17c0,0.06-0.01,0.11-0.01,0.17c0,0.36,0.06,0.68,0.15,0.99c0.09,0.27,0.21,0.53,0.35,0.78
		c0.11-0.32,0.19-0.65,0.26-0.99c0.07-0.37,0.12-0.74,0.15-1.13C65.7,90.05,65.4,90.11,65.1,90.17L65.1,90.17z M66.68,89.83
		c0.06,0.51,0.16,0.99,0.3,1.45c0.11,0.36,0.25,0.69,0.43,1.01c0.12-0.43,0.19-0.85,0.21-1.28c0.03-0.45,0.01-0.91-0.04-1.36
		l-0.01-0.07C67.28,89.67,66.98,89.75,66.68,89.83L66.68,89.83z M68.17,89.4c0.01,0.05,0.01,0.11,0.02,0.16
		c0.11,0.65,0.29,1.25,0.52,1.82c0.2,0.48,0.43,0.94,0.7,1.37c0.04-0.45,0.04-0.92,0-1.43c-0.05-0.64-0.15-1.32-0.31-2.05
		c-0.01-0.06-0.03-0.12-0.04-0.18C68.77,89.21,68.47,89.31,68.17,89.4L68.17,89.4z M69.64,88.88c0.02,0.08,0.03,0.16,0.05,0.23
		c0.21,0.84,0.47,1.62,0.78,2.34c0.25,0.58,0.53,1.12,0.84,1.62c0-0.7-0.06-1.38-0.16-2.07c-0.13-0.84-0.33-1.67-0.59-2.5
		C70.26,88.64,69.95,88.76,69.64,88.88L69.64,88.88z M82.05,89.26c0.43,0.21,0.8,0.41,1.15,0.59c0.26,0.14,0.52,0.27,0.78,0.41
		c-1.03-1.56-2.05-3.03-3.31-4.37c-1.03-0.57-2-1.26-2.91-2.06c-0.24,0.23-0.49,0.44-0.75,0.66c0.8,0.81,1.65,1.59,2.5,2.37
		C80.37,87.64,81.23,88.43,82.05,89.26L82.05,89.26z M74.44,86.42c0.64,1.01,1.23,2.05,1.82,3.09c1.29,2.26,2.57,4.52,4.31,6.42
		c1.34,1.46,3.08,2.5,4.82,3.54c0.62,0.37,1.24,0.74,1.84,1.13c-0.23-0.69-0.43-1.38-0.63-2.08c-0.56-1.95-1.13-3.9-2.23-5.55
		c-1.43-2.14-3.35-3.9-5.27-5.66c-0.87-0.8-1.73-1.59-2.56-2.43C75.87,85.43,75.16,85.94,74.44,86.42L74.44,86.42z M78.21,83.41
		c0.9,0.79,1.88,1.47,2.92,2.03c0.82,0.44,1.67,0.8,2.56,1.09c-0.26-0.39-0.54-0.78-0.84-1.16c-0.43-0.55-0.89-1.07-1.39-1.55
		l-0.04-0.02c-0.81-0.36-1.58-0.8-2.32-1.3c-0.19,0.2-0.38,0.4-0.58,0.6C78.42,83.2,78.31,83.3,78.21,83.41L78.21,83.41z
		 M79.52,82.04c0.69,0.47,1.41,0.87,2.15,1.2c0.64,0.29,1.31,0.52,2,0.7c-0.39-0.5-0.83-0.97-1.32-1.41
		c-0.59-0.54-1.25-1.05-1.95-1.54C80.12,81.35,79.82,81.7,79.52,82.04L79.52,82.04z M80.78,80.51c0.54,0.36,1.09,0.66,1.65,0.9
		c0.46,0.19,0.93,0.33,1.4,0.41c-0.3-0.36-0.64-0.69-1.02-0.99c-0.46-0.37-0.98-0.7-1.52-1C81.12,80.06,80.96,80.28,80.78,80.51
		L80.78,80.51z M81.65,79.31c0.45,0.22,0.91,0.39,1.36,0.52c0.33,0.09,0.66,0.16,0.98,0.21c-0.21-0.18-0.44-0.34-0.69-0.5
		c-0.4-0.26-0.85-0.5-1.33-0.73C81.87,78.98,81.76,79.15,81.65,79.31L81.65,79.31z M82.32,78.25c0.33,0.11,0.67,0.19,1.01,0.24
		c0.32,0.05,0.64,0.06,0.96,0.06c-0.16-0.21-0.36-0.42-0.57-0.62c-0.25-0.23-0.53-0.46-0.83-0.68
		C82.71,77.59,82.52,77.93,82.32,78.25L82.32,78.25z M83.24,76.62c0.27,0.09,0.53,0.17,0.8,0.21c0.22,0.03,0.45,0.05,0.68,0.03
		c-0.14-0.12-0.3-0.23-0.47-0.34c-0.23-0.14-0.49-0.27-0.76-0.39C83.4,76.29,83.32,76.45,83.24,76.62L83.24,76.62z M83.78,75.49
		c0.26,0.05,0.51,0.09,0.76,0.12c0.23,0.02,0.45,0.03,0.66,0.03c-0.12-0.15-0.26-0.28-0.42-0.4c-0.21-0.16-0.45-0.3-0.71-0.43
		C83.98,75.03,83.88,75.26,83.78,75.49L83.78,75.49z M84.35,74.1c0.26,0.03,0.53,0.05,0.8,0.06c0.28,0.01,0.56,0,0.83-0.03
		c-0.16-0.16-0.35-0.32-0.56-0.46c-0.24-0.16-0.5-0.31-0.75-0.44C84.57,73.53,84.46,73.82,84.35,74.1L84.35,74.1z M84.9,72.53
		c0.27,0.03,0.53,0.04,0.78,0.03c0.22-0.01,0.43-0.04,0.64-0.08c-0.13-0.12-0.27-0.23-0.44-0.34c-0.22-0.14-0.47-0.27-0.75-0.39
		C85.05,72.01,84.98,72.27,84.9,72.53L84.9,72.53z M85.3,71.06c0.33,0.04,0.64,0.06,0.94,0.06c0.26-0.01,0.51-0.03,0.75-0.09
		c-0.17-0.16-0.38-0.29-0.61-0.41c-0.27-0.14-0.58-0.27-0.9-0.39C85.43,70.51,85.37,70.79,85.3,71.06L85.3,71.06z M85.62,69.56
		c0.32,0.05,0.63,0.07,0.93,0.06c0.26-0.01,0.51-0.03,0.75-0.09c-0.13-0.1-0.29-0.2-0.49-0.29c-0.3-0.15-0.67-0.29-1.07-0.42
		C85.7,69.07,85.66,69.31,85.62,69.56L85.62,69.56z M85.83,68.15c0.4,0.07,0.8,0.11,1.19,0.13c0.33,0.01,0.65,0,0.97-0.05
		c-0.25-0.2-0.53-0.36-0.85-0.49c-0.37-0.15-0.79-0.27-1.22-0.37C85.89,67.63,85.86,67.89,85.83,68.15L85.83,68.15z M85.97,66.69
		c0.47,0.03,0.95,0.04,1.42,0.02c0.36-0.01,0.72-0.05,1.09-0.1c-0.3-0.14-0.62-0.26-0.96-0.36c-0.47-0.14-0.98-0.24-1.51-0.32
		C86,66.18,85.99,66.44,85.97,66.69L85.97,66.69z M86.03,65.26c0.63,0.01,1.26,0,1.89-0.05c0.52-0.04,1.03-0.11,1.55-0.2
		c-1.02-0.48-2.22-0.56-3.44-0.6c0,0.19,0.01,0.38,0.01,0.57C86.03,65.07,86.03,65.16,86.03,65.26L86.03,65.26z M86,63.76l0.18-0.01
		c1.33-0.04,2.67-0.09,4.41-0.52c-0.52-0.18-1.13-0.29-1.79-0.36c-0.89-0.09-1.86-0.09-2.86-0.07C85.96,63.13,85.98,63.44,86,63.76
		L86,63.76z M85.88,62.17c0.26-0.02,0.46-0.04,0.67-0.06l0,0c1.87-0.16,3.73-0.32,5.44-0.86c-0.16-0.05-0.33-0.09-0.51-0.14v0
		c-0.52-0.13-1.12-0.26-1.79-0.39c-1.25,0.23-2.57,0.38-3.92,0.51C85.8,61.54,85.84,61.86,85.88,62.17L85.88,62.17z M85.66,60.63
		c1.8-0.18,3.53-0.39,5.11-0.76c1.53-0.36,2.92-0.88,4.09-1.68c-0.52-0.14-1.05-0.23-1.59-0.27c-0.74-0.05-1.5-0.01-2.32,0.09
		l0-0.01c-0.81,0.15-1.62,0.28-2.43,0.41c-1.07,0.17-2.14,0.34-3.2,0.56C85.45,59.51,85.56,60.07,85.66,60.63L85.66,60.63z
		 M84.12,55.26c0.99-0.45,1.98-0.95,2.96-1.45c0.74-0.37,1.48-0.75,2.22-1.1c0.73-0.37,1.38-0.78,1.95-1.24
		c0.42-0.34,0.8-0.71,1.15-1.13c-1.42,0.01-2.86,0.37-4.32,0.95c-1.53,0.6-3.1,1.44-4.71,2.33C83.65,54.16,83.89,54.71,84.12,55.26
		L84.12,55.26z M85.17,58.36c1.07-0.21,2.17-0.39,3.26-0.56c2.57-0.41,5.14-0.82,7.52-1.78c1.84-0.74,3.42-2.01,5-3.27
		c0.56-0.45,1.12-0.9,1.7-1.33c-0.72-0.03-1.44-0.08-2.16-0.14c-2.02-0.16-4.05-0.31-5.98,0.14c-2.5,0.59-4.83,1.76-7.15,2.94
		c-1,0.51-1.99,1.01-3.01,1.47C84.66,56.66,84.94,57.5,85.17,58.36L85.17,58.36z M83.1,53.08c1.36-0.76,2.7-1.47,4.01-2.04
		c0.36-0.27,0.65-0.57,0.89-0.91c0.13-0.19,0.25-0.38,0.35-0.59c-0.53,0.15-1.04,0.34-1.55,0.56c-0.67,0.29-1.33,0.65-1.97,1.04
		c-0.58,0.58-1.21,1.13-1.88,1.66C83.01,52.89,83.05,52.98,83.1,53.08L83.1,53.08z M65.84,39.93c0.12-0.68,0.27-1.35,0.46-1.98
		l-0.04,0c0.05-0.83,0.09-1.69,0.09-2.54c0-0.61-0.03-1.22-0.1-1.81c-0.07,0.11-0.14,0.23-0.21,0.36c-0.21,0.38-0.41,0.82-0.6,1.25
		c-0.16,1.45-0.45,2.95-0.77,4.5C65.07,39.77,65.46,39.85,65.84,39.93L65.84,39.93z M82.65,52.26c0.68-0.55,1.34-1.12,1.92-1.73
		c0.5-0.52,0.94-1.07,1.3-1.66c-0.61,0.22-1.21,0.5-1.8,0.83c-0.72,0.4-1.42,0.87-2.11,1.42C82.2,51.49,82.43,51.87,82.65,52.26
		L82.65,52.26z M81.6,50.58l0.11-0.1c0.87-0.8,1.78-1.64,2.25-2.56c-0.41,0.15-0.84,0.35-1.26,0.59c-0.59,0.33-1.19,0.74-1.74,1.18
		C81.18,49.97,81.4,50.27,81.6,50.58L81.6,50.58z M80.58,49.17c0.61-0.56,1.23-1.19,1.56-2.02c-0.33,0.16-0.66,0.35-0.99,0.56
		c-0.38,0.25-0.74,0.53-1.08,0.83C80.24,48.76,80.41,48.96,80.58,49.17L80.58,49.17z M79.66,48.07c0.23-0.26,0.44-0.54,0.62-0.83
		l0,0c0.16-0.27,0.3-0.56,0.4-0.86c-0.28,0.09-0.54,0.21-0.8,0.37c-0.29,0.18-0.58,0.39-0.85,0.64
		C79.24,47.6,79.45,47.83,79.66,48.07L79.66,48.07z M78.58,46.91c0.2-0.24,0.37-0.48,0.51-0.72c0.11-0.19,0.2-0.39,0.28-0.59
		c-0.22,0.09-0.42,0.19-0.61,0.32c-0.23,0.15-0.45,0.33-0.64,0.54c0.14,0.13,0.28,0.27,0.41,0.4
		C78.54,46.87,78.56,46.89,78.58,46.91L78.58,46.91z M77.62,45.99c0.23-0.36,0.47-0.76,0.63-1.19c-0.18,0.09-0.35,0.19-0.52,0.3
		c-0.22,0.14-0.43,0.29-0.61,0.44C77.28,45.69,77.45,45.84,77.62,45.99L77.62,45.99z M76.48,45.02c0.16-0.37,0.32-0.75,0.42-1.11
		c-0.12,0.07-0.24,0.15-0.35,0.23c-0.2,0.15-0.4,0.31-0.58,0.48C76.15,44.75,76.31,44.89,76.48,45.02L76.48,45.02z M75.3,44.12
		c0.13-0.44,0.26-0.89,0.28-1.32c-0.16,0.11-0.32,0.24-0.47,0.38c-0.16,0.15-0.31,0.31-0.45,0.49
		C74.87,43.82,75.08,43.97,75.3,44.12L75.3,44.12z M74.07,43.3c0.09-0.23,0.17-0.46,0.23-0.69c0.06-0.21,0.09-0.43,0.11-0.66
		c-0.18,0.13-0.34,0.28-0.47,0.44c-0.15,0.18-0.28,0.38-0.4,0.58C73.72,43.08,73.9,43.19,74.07,43.3L74.07,43.3z M72.95,42.63
		c0.16-0.49,0.32-1.06,0.37-1.65c-0.19,0.14-0.37,0.3-0.55,0.48c-0.23,0.23-0.45,0.48-0.65,0.73C72.4,42.33,72.68,42.47,72.95,42.63
		L72.95,42.63z M71.5,41.87c0.12-0.31,0.22-0.64,0.29-0.99c0.06-0.29,0.11-0.6,0.14-0.92c-0.18,0.18-0.36,0.38-0.52,0.59
		c-0.23,0.3-0.44,0.63-0.63,0.99C71.02,41.65,71.26,41.76,71.5,41.87L71.5,41.87z M70.18,41.28c0.28-0.69,0.53-1.4,0.61-2.18
		c-0.24,0.27-0.45,0.55-0.65,0.83c-0.25,0.35-0.47,0.71-0.67,1.07C69.71,41.09,69.94,41.18,70.18,41.28L70.18,41.28z M68.8,40.76
		c0.15-0.6,0.28-1.21,0.37-1.82c0.07-0.51,0.12-1.02,0.12-1.54c-0.37,0.48-0.64,0.96-0.84,1.43c-0.15,0.36-0.26,0.73-0.36,1.1
		c-0.04,0.18-0.08,0.37-0.12,0.55C68.25,40.57,68.53,40.66,68.8,40.76L68.8,40.76z M67.38,40.31c0.04-0.17,0.08-0.35,0.13-0.53
		c0.14-0.66,0.26-1.32,0.34-1.99c0.09-0.66,0.14-1.31,0.17-1.95c-0.37,0.47-0.67,1.03-0.91,1.66c-0.3,0.79-0.51,1.67-0.66,2.57
		C66.75,40.14,67.07,40.22,67.38,40.31L67.38,40.31z M64.07,39.61c0.38-1.85,0.73-3.64,0.85-5.33c0.11-1.57,0.03-3.05-0.38-4.41
		c-0.29,0.46-0.53,0.93-0.73,1.44c-0.27,0.69-0.46,1.43-0.6,2.24l-0.01,0c-0.1,0.81-0.22,1.63-0.34,2.44
		c-0.17,1.15-0.34,2.3-0.45,3.44C62.96,39.47,63.52,39.53,64.07,39.61L64.07,39.61z M58.56,39.42c-0.14-1.14-0.33-2.28-0.52-3.42
		c-0.14-0.81-0.27-1.63-0.39-2.44l0,0c-0.14-0.81-0.33-1.55-0.6-2.24c-0.2-0.5-0.44-0.98-0.73-1.44c-0.42,1.36-0.5,2.84-0.38,4.41
		c0.12,1.69,0.46,3.47,0.85,5.32C57.37,39.52,57.96,39.46,58.56,39.42L58.56,39.42z M61.79,39.39c0.12-1.17,0.29-2.33,0.45-3.48
		c0.38-2.58,0.75-5.15,0.54-7.71c-0.16-1.98-0.89-3.86-1.63-5.75c-0.26-0.67-0.52-1.34-0.76-2.02c-0.24,0.68-0.51,1.35-0.78,2.02
		c-0.75,1.88-1.51,3.77-1.65,5.75c-0.19,2.56,0.24,5.13,0.67,7.7c0.19,1.16,0.39,2.32,0.53,3.49c0.41-0.02,0.82-0.03,1.23-0.03
		C60.87,39.35,61.33,39.36,61.79,39.39L61.79,39.39z M55.72,37.38c-0.21-0.94-0.46-1.8-0.77-2.54c-0.22-0.52-0.47-0.97-0.76-1.34
		c-0.14,0.6-0.22,1.21-0.25,1.84c-0.04,0.8-0.01,1.61,0.05,2.44c0.32,0.7,0.55,1.44,0.75,2.2c0.48-0.11,0.96-0.2,1.44-0.28
		C56.01,38.91,55.86,38.14,55.72,37.38L55.72,37.38z M54.14,40.12c-0.19-0.75-0.41-1.48-0.73-2.15c-0.28-0.59-0.64-1.14-1.12-1.61
		c0,0.7,0.06,1.39,0.19,2.06c0.14,0.68,0.36,1.34,0.67,1.97C53.48,40.3,53.81,40.21,54.14,40.12L54.14,40.12z M52.54,40.58
		c-0.28-0.47-0.56-0.93-0.89-1.34c-0.3-0.38-0.62-0.72-0.99-1c0.02,0.47,0.1,0.91,0.22,1.34c0.13,0.48,0.32,0.94,0.53,1.4
		C51.78,40.84,52.16,40.7,52.54,40.58L52.54,40.58z M50.77,41.23l-0.03-0.04c-0.39-0.58-0.77-1.13-1.27-1.61
		c0.03,0.29,0.08,0.57,0.14,0.85c0.09,0.38,0.21,0.75,0.38,1.13C50.25,41.44,50.51,41.33,50.77,41.23L50.77,41.23z M49.38,41.84
		c-0.18-0.27-0.37-0.53-0.58-0.78c-0.18-0.22-0.38-0.42-0.6-0.59c0.01,0.3,0.06,0.58,0.14,0.85c0.09,0.3,0.21,0.58,0.37,0.86
		C48.93,42.06,49.15,41.95,49.38,41.84L49.38,41.84z M48.14,42.48c-0.25-0.36-0.52-0.72-0.89-1.02c0.04,0.23,0.09,0.44,0.15,0.64
		c0.07,0.23,0.16,0.44,0.25,0.65C47.81,42.65,47.97,42.56,48.14,42.48L48.14,42.48z M47.02,43.12c-0.28-0.34-0.57-0.66-0.89-0.88
		c0.08,0.48,0.26,0.82,0.45,1.15C46.73,43.31,46.87,43.21,47.02,43.12L47.02,43.12z M46.02,43.77c-0.32-0.41-0.64-0.81-1.08-1.05
		c0,0.21,0.06,0.42,0.14,0.63c0.11,0.25,0.26,0.5,0.45,0.76C45.7,43.99,45.86,43.88,46.02,43.77L46.02,43.77z M44.97,44.52
		c-0.18-0.15-0.37-0.31-0.55-0.46c-0.1-0.08-0.21-0.17-0.31-0.25c0.03,0.17,0.06,0.33,0.1,0.49c0.06,0.22,0.13,0.43,0.21,0.64
		C44.6,44.81,44.78,44.66,44.97,44.52L44.97,44.52z M43.84,45.43c-0.17-0.17-0.36-0.33-0.56-0.48c-0.17-0.12-0.36-0.23-0.57-0.33
		c0.08,0.22,0.17,0.42,0.28,0.6c0.12,0.21,0.25,0.41,0.39,0.6C43.53,45.69,43.69,45.56,43.84,45.43L43.84,45.43z M42.86,46.3
		c-0.21-0.17-0.42-0.33-0.65-0.47c-0.2-0.12-0.4-0.23-0.63-0.32c0.09,0.24,0.2,0.46,0.33,0.67c0.13,0.22,0.28,0.43,0.43,0.63
		C42.51,46.64,42.69,46.47,42.86,46.3L42.86,46.3z M41.86,47.3c-0.27-0.24-0.55-0.46-0.83-0.65c-0.21-0.14-0.43-0.26-0.66-0.37
		c0.13,0.31,0.28,0.58,0.44,0.82c0.18,0.26,0.37,0.48,0.57,0.7C41.55,47.63,41.7,47.46,41.86,47.3L41.86,47.3z M40.95,48.31
		c-0.35-0.26-0.72-0.51-1.1-0.73c-0.32-0.18-0.64-0.33-0.99-0.45c0.16,0.28,0.35,0.55,0.57,0.82c0.28,0.35,0.61,0.7,0.96,1.04
		C40.57,48.76,40.76,48.53,40.95,48.31L40.95,48.31z M39.98,49.51c-0.51-0.38-1.02-0.73-1.53-1.04c-0.39-0.23-0.77-0.43-1.16-0.59
		c0.23,0.42,0.52,0.81,0.83,1.17c0.38,0.44,0.82,0.85,1.29,1.24C39.59,50.03,39.78,49.77,39.98,49.51L39.98,49.51z M39.03,50.86
		l-0.13-0.08c-1.25-0.75-2.51-1.49-3.82-2.03c0.11,0.18,0.23,0.36,0.36,0.54c0.3,0.39,0.66,0.78,1.09,1.15
		c0.69,0.36,1.35,0.77,2.01,1.19C38.69,51.37,38.86,51.11,39.03,50.86L39.03,50.86z M38.22,52.16c-0.89-0.58-1.81-1.12-2.78-1.58
		c-0.88-0.42-1.8-0.77-2.77-1.04c0.1,0.16,0.22,0.32,0.34,0.48c0.27,0.34,0.57,0.67,0.92,1c1.26,0.57,2.53,1.26,3.83,1.98
		C37.9,52.72,38.06,52.44,38.22,52.16L38.22,52.16z M37.47,53.55c-1.66-0.92-3.27-1.79-4.85-2.41c-1.46-0.57-2.9-0.94-4.32-0.95
		c0.35,0.42,0.73,0.79,1.15,1.13c0.58,0.46,1.22,0.87,1.95,1.24c0.74,0.36,1.48,0.73,2.22,1.1c1.03,0.52,2.07,1.05,3.11,1.52
		C36.96,54.62,37.21,54.08,37.47,53.55L37.47,53.55z M29.75,57.85c-0.81-0.11-1.58-0.14-2.32-0.09c-0.54,0.04-1.07,0.12-1.59,0.27
		c1.17,0.8,2.56,1.32,4.09,1.68c1.62,0.38,3.4,0.59,5.25,0.77c0.1-0.56,0.22-1.11,0.35-1.66c-1.11-0.23-2.23-0.41-3.35-0.58
		c-0.81-0.13-1.63-0.26-2.43-0.41L29.75,57.85L29.75,57.85z M35.08,61.09c-1.72-0.17-3.39-0.37-4.93-0.7
		c-0.33,0-0.69,0.05-1.02,0.14c-0.13,0.04-0.25,0.08-0.37,0.12c1.76,0.67,3.31,0.68,4.8,0.7c0.5,0.01,0.99,0.01,1.48,0.04
		C35.05,61.29,35.07,61.19,35.08,61.09L35.08,61.09z M36.5,55.74c-1.07-0.48-2.11-1.01-3.16-1.54c-2.32-1.18-4.65-2.36-7.15-2.94
		c-1.93-0.45-3.96-0.3-5.98-0.14c-0.72,0.06-1.44,0.11-2.16,0.14c0.58,0.43,1.14,0.88,1.7,1.33c1.58,1.26,3.17,2.53,5,3.27
		c2.38,0.96,4.95,1.37,7.52,1.78c1.14,0.18,2.29,0.37,3.4,0.59C35.92,57.39,36.19,56.55,36.5,55.74L36.5,55.74z M34.83,63.59
		c-0.69,0.07-1.39,0.1-2.09,0.05c-0.37,0.07-0.73,0.17-1.07,0.29c-0.14,0.05-0.27,0.11-0.4,0.17c0.57,0.19,1.14,0.32,1.7,0.41
		c0.61,0.1,1.22,0.15,1.81,0.15C34.79,64.31,34.81,63.95,34.83,63.59L34.83,63.59z M34.96,62.02c-0.89,0-1.78,0.02-2.64,0.11
		c-0.72,0.07-1.42,0.19-2.1,0.37c0.72,0.27,1.43,0.42,2.13,0.5c0.84,0.09,1.68,0.06,2.51-0.03C34.89,62.66,34.92,62.34,34.96,62.02
		L34.96,62.02z M39.62,88.56c0.6-0.58,1.21-1.14,1.83-1.71c0.83-0.76,1.65-1.52,2.43-2.3c-0.46-0.39-0.91-0.79-1.34-1.21
		c-1.39,1.18-2.71,2.35-3.81,3.57c-1.05,1.17-1.9,2.38-2.4,3.71c0.51-0.18,0.99-0.41,1.46-0.68C38.42,89.56,39.02,89.1,39.62,88.56
		L39.62,88.56z M42.11,82.91c-0.23-0.24-0.46-0.48-0.68-0.72c-0.95,0.82-1.84,1.6-2.65,2.42c-0.73,0.73-1.41,1.49-2.04,2.32
		c0.19-0.04,0.39-0.08,0.58-0.14c0.41-0.12,0.82-0.29,1.23-0.56C39.59,85.09,40.82,84.01,42.11,82.91L42.11,82.91z M41.02,81.72
		c-0.15-0.17-0.29-0.34-0.44-0.52c-0.19,0.14-0.37,0.27-0.56,0.4c-0.56,0.45-1.08,0.91-1.54,1.39c-0.52,0.54-0.99,1.09-1.42,1.66
		c0.13-0.03,0.26-0.06,0.38-0.1c0.33-0.1,0.66-0.25,0.97-0.47C39.22,83.29,40.09,82.52,41.02,81.72L41.02,81.72z M40.19,80.71
		c-0.2-0.26-0.39-0.52-0.58-0.78c-0.54,0.39-1.04,0.79-1.49,1.23c-0.37,0.36-0.71,0.74-1,1.15c0.48-0.13,0.95-0.31,1.41-0.54
		c0.38-0.19,0.76-0.41,1.14-0.66C39.83,80.98,40.01,80.84,40.19,80.71L40.19,80.71z M39.25,79.42c-0.18-0.27-0.36-0.54-0.54-0.82
		c-0.07,0.05-0.15,0.09-0.22,0.13c-0.38,0.26-0.73,0.54-1.04,0.84c-0.31,0.3-0.57,0.62-0.8,0.96c0.4-0.06,0.8-0.19,1.19-0.35
		C38.31,79.99,38.78,79.73,39.25,79.42L39.25,79.42z M38.38,78.07c-0.12-0.2-0.24-0.41-0.36-0.61c-0.35,0.2-0.67,0.42-0.95,0.67
		c-0.23,0.2-0.43,0.42-0.6,0.66c0.28-0.03,0.56-0.1,0.84-0.19c0.28-0.09,0.56-0.22,0.84-0.37C38.23,78.17,38.31,78.12,38.38,78.07
		L38.38,78.07z M37.7,76.85c-0.17-0.33-0.34-0.66-0.49-0.99c-0.3,0.18-0.56,0.38-0.79,0.6c-0.2,0.2-0.38,0.42-0.52,0.66
		c0.32,0,0.63-0.03,0.93-0.07C37.12,76.99,37.41,76.93,37.7,76.85L37.7,76.85z M36.91,75.21c-0.1-0.24-0.2-0.48-0.3-0.72
		c-0.25,0.14-0.47,0.29-0.66,0.45c-0.15,0.13-0.29,0.28-0.41,0.43c0.23,0,0.45-0.01,0.67-0.03C36.45,75.31,36.68,75.26,36.91,75.21
		L36.91,75.21z M36.37,73.86c-0.11-0.3-0.22-0.6-0.32-0.91c-0.18,0.11-0.35,0.23-0.51,0.36c-0.18,0.15-0.35,0.31-0.51,0.49
		c0.22,0.07,0.45,0.12,0.67,0.13C35.93,73.94,36.15,73.92,36.37,73.86L36.37,73.86z M35.85,72.29c-0.08-0.27-0.16-0.54-0.23-0.81
		c-0.2,0.1-0.39,0.21-0.57,0.32c-0.17,0.11-0.34,0.24-0.49,0.37c0.23,0.08,0.46,0.14,0.68,0.16C35.45,72.35,35.65,72.34,35.85,72.29
		L35.85,72.29z M35.46,70.84c-0.06-0.26-0.12-0.52-0.17-0.78c-0.24,0.11-0.47,0.22-0.68,0.35c-0.2,0.12-0.38,0.25-0.55,0.39
		c0.22,0.07,0.44,0.11,0.66,0.11C34.97,70.92,35.22,70.9,35.46,70.84L35.46,70.84z M35.16,69.37c-0.04-0.24-0.08-0.49-0.12-0.73
		c-0.26,0.1-0.51,0.22-0.74,0.35c-0.2,0.11-0.39,0.23-0.57,0.36c0.22,0.04,0.44,0.06,0.65,0.07C34.65,69.43,34.91,69.41,35.16,69.37
		L35.16,69.37z M34.95,67.88c-0.03-0.29-0.06-0.59-0.08-0.88c-0.34,0.09-0.66,0.2-0.98,0.33c-0.23,0.09-0.46,0.2-0.68,0.31
		c0.26,0.06,0.51,0.12,0.77,0.15C34.31,67.84,34.63,67.87,34.95,67.88L34.95,67.88z M34.82,66.29c-0.02-0.31-0.03-0.63-0.03-0.95
		c-0.47,0.07-0.94,0.15-1.39,0.25c-0.36,0.09-0.7,0.19-1.04,0.32c0.36,0.12,0.72,0.2,1.09,0.27C33.91,66.26,34.36,66.3,34.82,66.29
		L34.82,66.29z M77.91,47.47c-4.48-4.48-10.67-7.25-17.5-7.25c-6.84,0-13.02,2.77-17.5,7.25c-4.48,4.48-7.25,10.67-7.25,17.51
		c0,6.84,2.77,13.03,7.25,17.51c4.48,4.48,10.67,7.25,17.5,7.25c6.84,0,13.02-2.77,17.5-7.25c4.48-4.48,7.25-10.67,7.25-17.51
		C85.16,58.14,82.39,51.95,77.91,47.47L77.91,47.47z"/>
	<path class="st0" d="M60.41,45.51c10.72,0,19.46,8.74,19.46,19.46c0,10.72-8.74,19.46-19.46,19.46c-10.72,0-19.46-8.74-19.46-19.46
		C40.95,54.26,49.69,45.51,60.41,45.51L60.41,45.51z M60.41,53.99c6.05,0,10.98,4.93,10.98,10.98c0,6.05-4.93,10.98-10.98,10.98
		c-6.05,0-10.98-4.93-10.98-10.98C49.43,58.93,54.36,53.99,60.41,53.99L60.41,53.99z M61.32,47.49l0.28-0.21l0.32-0.16L62.29,47
		l0.4-0.08l0.42-0.04l0.45,0l0.47,0.04L64.5,47l0.49,0.11l0.49,0.14l0.49,0.17l0.48,0.2l0.47,0.22l0.45,0.24l0.43,0.26l0.4,0.28
		l0.37,0.29l0.34,0.3l0.29,0.31l0.25,0.32l0.2,0.32l0.14,0.31l0.09,0.31l0.03,0.3l-0.03,0.29l-0.1,0.29l-0.17,0.29l-2.33,3.21
		l-0.17-0.13l-0.2-0.14l-0.21-0.14l-0.44-0.27l-0.48-0.25l-0.51-0.24c-0.26-0.11-0.53-0.22-0.79-0.32c-0.27-0.1-0.54-0.19-0.8-0.27
		c-0.26-0.08-0.52-0.15-0.79-0.22l-0.5-0.11c-0.23-0.04-0.46-0.08-0.69-0.11l-0.41-0.03l-0.19,0l-0.18,0.01l-0.16,0.02l-0.09,0.02
		l-0.09-3.64l0.04-0.49l0.1-0.42l0.15-0.36l0.2-0.3L61.32,47.49L61.32,47.49z M71.42,51.36h0.35l0.36,0.06l0.36,0.12l0.36,0.17
		l0.37,0.22l0.36,0.26l0.35,0.31l0.34,0.34l0.33,0.37l0.31,0.4l0.3,0.42l0.27,0.44l0.25,0.45l0.22,0.46l0.19,0.46l0.16,0.46
		l0.13,0.45l0.09,0.44l0.06,0.42l0.02,0.4l-0.03,0.37l-0.07,0.34l-0.11,0.3l-0.15,0.26l-0.2,0.22l-0.25,0.18l-0.31,0.14l-3.77,1.23
		l-0.06-0.2l-0.07-0.23l-0.18-0.47l-0.22-0.48l-0.26-0.49l-0.28-0.49c-0.15-0.24-0.31-0.48-0.47-0.72c-0.16-0.23-0.33-0.46-0.5-0.68
		c-0.17-0.21-0.33-0.41-0.51-0.62l-0.34-0.37L68.53,56c-0.26-0.23-0.52-0.46-0.84-0.6l2.07-2.99l0.32-0.37l0.33-0.28l0.33-0.2
		l0.34-0.13L71.42,51.36L71.42,51.36z M77.32,60.44l0.28,0.21l0.25,0.26l0.23,0.31l0.2,0.35l0.17,0.39l0.14,0.43l0.11,0.46
		l0.08,0.48l0.05,0.5l0.02,0.51l-0.01,0.52l-0.04,0.52l-0.06,0.52l-0.09,0.51l-0.12,0.49l-0.14,0.47l-0.16,0.44l-0.18,0.41
		l-0.2,0.38l-0.22,0.33l-0.24,0.28l-0.25,0.23l-0.26,0.18l-0.28,0.12l-0.29,0.06l-0.3,0l-0.33-0.07l-3.77-1.23l0.07-0.2l0.07-0.23
		l0.07-0.24l0.11-0.51l0.09-0.54l0.07-0.56c0.03-0.28,0.05-0.57,0.06-0.85c0.01-0.28,0.01-0.57,0.01-0.85
		c-0.01-0.27-0.02-0.55-0.03-0.82l-0.05-0.51l-0.07-0.47c-0.08-0.41-0.16-0.83-0.37-1.2l3.44-1.21l0.48-0.11l0.43-0.04l0.39,0.03
		L77,60.29L77.32,60.44L77.32,60.44z M76.75,71.25l0.11,0.33l0.05,0.36l0,0.38l-0.05,0.4l-0.1,0.41l-0.14,0.43l-0.18,0.43
		l-0.22,0.43l-0.25,0.43l-0.28,0.42l-0.31,0.41l-0.33,0.4l-0.36,0.38l-0.37,0.36l-0.38,0.33l-0.39,0.3l-0.39,0.26l-0.39,0.23
		l-0.39,0.18l-0.38,0.14l-0.36,0.09l-0.34,0.04l-0.32-0.01l-0.29-0.07l-0.27-0.12l-0.24-0.18l-0.23-0.26l-2.33-3.21l0.18-0.12
		L68,74.29l0.39-0.32l0.39-0.36l0.39-0.4c0.19-0.21,0.38-0.42,0.56-0.64c0.18-0.22,0.35-0.45,0.53-0.67
		c0.16-0.23,0.32-0.45,0.47-0.68c0.14-0.22,0.28-0.44,0.41-0.67l0.22-0.42c0.18-0.38,0.36-0.77,0.4-1.19l3.49,1.04l0.45,0.19
		l0.37,0.23l0.29,0.26l0.23,0.28L76.75,71.25L76.75,71.25z M69.95,79.66l-0.11,0.33l-0.17,0.32l-0.22,0.31l-0.27,0.3l-0.32,0.28
		l-0.36,0.26l-0.4,0.24l-0.43,0.22l-0.46,0.2l-0.48,0.18l-0.49,0.15l-0.51,0.12l-0.51,0.1l-0.51,0.07l-0.5,0.04l-0.49,0.01
		l-0.47-0.02l-0.45-0.05l-0.42-0.08l-0.39-0.11l-0.35-0.14l-0.3-0.17l-0.25-0.2l-0.2-0.22l-0.15-0.25l-0.09-0.29l-0.03-0.34v-3.96
		l0.21,0.01l0.24,0l0.5-0.03l0.53-0.06l0.54-0.09c0.28-0.06,0.56-0.12,0.83-0.19c0.28-0.07,0.55-0.15,0.82-0.24
		c0.26-0.09,0.53-0.18,0.79-0.27c0.24-0.1,0.48-0.2,0.72-0.3l0.43-0.21c0.37-0.2,0.74-0.41,1.03-0.73l2.21,2.9l0.25,0.42l0.17,0.4
		l0.09,0.38l0.02,0.36L69.95,79.66L69.95,79.66z M59.49,82.46l-0.28,0.21l-0.32,0.16l-0.36,0.12l-0.39,0.08l-0.42,0.04l-0.45,0
		l-0.47-0.04l-0.48-0.07l-0.49-0.11l-0.49-0.14l-0.49-0.17l-0.48-0.2l-0.47-0.22l-0.45-0.24l-0.43-0.26l-0.4-0.28l-0.37-0.29
		l-0.34-0.3l-0.29-0.31l-0.25-0.32l-0.2-0.32l-0.14-0.31l-0.09-0.31l-0.03-0.3l0.03-0.29l0.1-0.29l0.17-0.29l2.33-3.21l0.17,0.13
		l0.19,0.14l0.21,0.14l0.45,0.27l0.48,0.25l0.51,0.24l0.53,0.22c0.27,0.1,0.53,0.2,0.81,0.29c0.26,0.09,0.53,0.16,0.8,0.24
		l0.51,0.13c0.24,0.05,0.48,0.1,0.72,0.13c0.41,0.05,0.84,0.1,1.26,0.02l0.09,3.64l-0.04,0.49l-0.1,0.42l-0.15,0.36l-0.2,0.3
		L59.49,82.46L59.49,82.46z M49.39,78.59h-0.35l-0.36-0.06l-0.36-0.12l-0.37-0.17l-0.36-0.22l-0.36-0.26l-0.35-0.31l-0.34-0.34
		l-0.33-0.37l-0.31-0.4l-0.3-0.42l-0.28-0.44l-0.25-0.45l-0.22-0.46l-0.19-0.46l-0.16-0.46l-0.13-0.45l-0.09-0.44l-0.06-0.42
		l-0.02-0.4l0.03-0.37l0.07-0.34l0.11-0.3l0.15-0.26l0.2-0.22l0.25-0.18l0.31-0.14l3.77-1.22l0.06,0.2l0.07,0.23l0.18,0.47
		l0.22,0.48l0.26,0.49l0.29,0.49c0.15,0.24,0.31,0.48,0.47,0.72c0.16,0.23,0.33,0.46,0.5,0.68l0.34,0.42
		c0.16,0.19,0.33,0.38,0.5,0.56l0.33,0.32l0.31,0.27l0.15,0.11l0.15,0.1l0.14,0.08l0.09,0.04l-2.07,3l-0.32,0.37l-0.33,0.28
		l-0.33,0.2l-0.34,0.13L49.39,78.59L49.39,78.59z M43.5,69.51l-0.28-0.21l-0.25-0.26l-0.23-0.31l-0.2-0.35L42.37,68l-0.14-0.43
		l-0.11-0.46l-0.08-0.48L42,66.14l-0.02-0.51l0.01-0.52l0.04-0.52l0.06-0.52l0.09-0.5l0.11-0.49l0.14-0.47l0.16-0.44l0.18-0.41
		l0.2-0.38l0.22-0.33l0.24-0.29l0.25-0.23l0.26-0.18l0.28-0.12l0.29-0.06l0.3,0l0.33,0.07l3.77,1.23l-0.07,0.2l-0.07,0.23
		l-0.07,0.24l-0.11,0.51l-0.09,0.54l-0.07,0.56c-0.03,0.29-0.05,0.57-0.06,0.86l-0.01,0.57l0.01,0.56c0.01,0.27,0.03,0.53,0.05,0.8
		l0.06,0.49l0.08,0.45l0.1,0.4l0.06,0.18l0.06,0.16l0.07,0.15l0.05,0.08l-3.43,1.2l-0.48,0.11l-0.43,0.04l-0.39-0.03l-0.35-0.09
		L43.5,69.51L43.5,69.51z M43.95,58.37l-0.05-0.36l0-0.38l0.05-0.4l0.1-0.41l0.14-0.43l0.18-0.43l0.22-0.43l0.25-0.43l0.28-0.42
		l0.31-0.41l0.33-0.4l0.35-0.38l0.37-0.36l0.38-0.33l0.39-0.3l0.39-0.26l0.39-0.23l0.39-0.18l0.38-0.14l0.36-0.09l0.34-0.04
		l0.32,0.01l0.29,0.07l0.27,0.12l0.24,0.18l0.23,0.26l2.33,3.21l-0.18,0.12l-0.19,0.14l-0.19,0.16l-0.37,0.35l-0.37,0.39l-0.36,0.42
		c-0.18,0.22-0.35,0.44-0.52,0.67c-0.16,0.23-0.32,0.46-0.48,0.69c-0.15,0.23-0.29,0.45-0.43,0.68c-0.13,0.21-0.25,0.43-0.37,0.65
		c-0.1,0.2-0.2,0.39-0.3,0.59l-0.15,0.35c-0.06,0.16-0.13,0.31-0.17,0.48l-3.54-1.12l-0.45-0.19l-0.37-0.23l-0.3-0.26l-0.23-0.28
		l-0.17-0.31L43.95,58.37L43.95,58.37z M50.87,50.29l0.11-0.33l0.17-0.32l0.22-0.31l0.27-0.3l0.32-0.28l0.36-0.26l0.4-0.24
		l0.43-0.22l0.46-0.2l0.48-0.18l0.49-0.15l0.51-0.12l0.51-0.1l0.51-0.07l0.5-0.04l0.49-0.01l0.47,0.02l0.45,0.05l0.42,0.08
		l0.39,0.11l0.35,0.14l0.3,0.17l0.25,0.2l0.2,0.22l0.15,0.25l0.09,0.29l0.03,0.34v3.96l-0.21-0.01l-0.24,0l-0.5,0.03l-0.53,0.06
		l-0.54,0.09c-0.28,0.06-0.55,0.12-0.83,0.19c-0.27,0.07-0.55,0.15-0.82,0.24c-0.26,0.09-0.53,0.18-0.79,0.27l-0.49,0.2
		c-0.22,0.1-0.44,0.2-0.66,0.31c-0.37,0.2-0.74,0.41-1.02,0.72l-2.21-2.9l-0.25-0.42l-0.17-0.4L50.84,51l-0.02-0.36L50.87,50.29
		L50.87,50.29z"/>
	<path class="st1" d="M46.62,55.73L47.7,54l0.24-0.39l0.36,0.29c0.24,0.19,0.47,0.37,0.7,0.54c0.42,0.32,0.83,0.64,1.26,1.02
		l0.01,0.01l0.01,0.01l0.01,0.01c0.21,0.21,0.28,0.67,0.23,1.13c-0.05,0.42-0.2,0.88-0.44,1.15h0c-0.02,0.02-0.04,0.04-0.05,0.05
		c-0.3,0.29-0.66,0.6-1.07,0.8c-0.45,0.22-0.96,0.3-1.5,0.11l0.28-0.76c0.31,0.11,0.6,0.06,0.88-0.07c0.31-0.15,0.61-0.4,0.85-0.65
		l0.01-0.01l0,0c0.13-0.14,0.21-0.43,0.24-0.71c0.03-0.23,0.03-0.42,0-0.46c-0.41-0.37-0.8-0.67-1.21-0.97
		c-0.12-0.09-0.23-0.18-0.35-0.27l-0.84,1.34L46.62,55.73L46.62,55.73z"/>
	<path class="st1" d="M44.61,66.78c0.64,0.03,1.31-0.03,1.96-0.08c-0.01-0.19-0.02-0.39-0.03-0.58c-0.03-0.63-0.05-1.27-0.1-1.93
		c-0.01-0.2-0.18-0.46-0.4-0.67c-0.2-0.19-0.43-0.33-0.64-0.33c-0.2,0-0.4,0.11-0.56,0.27c-0.2,0.2-0.34,0.48-0.4,0.78
		c-0.1,0.55-0.13,1.03-0.08,1.48C44.4,66.07,44.49,66.42,44.61,66.78L44.61,66.78z M46.69,67.49c-0.79,0.07-1.6,0.14-2.4,0.07
		l-0.25-0.02l-0.09-0.23c-0.2-0.5-0.33-0.99-0.39-1.52c-0.06-0.53-0.03-1.08,0.09-1.71c0.09-0.46,0.31-0.88,0.62-1.2
		c0.31-0.32,0.71-0.52,1.14-0.52c0.43,0,0.86,0.23,1.2,0.56c0.36,0.35,0.62,0.81,0.65,1.21c0.04,0.63,0.07,1.29,0.1,1.95
		c0.01,0.32,0.03,0.63,0.04,0.97l0.02,0.39l-0.39,0.03C46.45,67.51,46.77,67.49,46.69,67.49L46.69,67.49z"/>
	<path class="st1" d="M53.65,53.39c-0.06-0.1-0.15-0.22-0.24-0.34c-0.22-0.31-0.45-0.62-0.58-1.01c-0.24-0.7-0.13-1.32,0.17-1.84
		c0.34-0.57,0.94-1,1.6-1.24c0.16-0.06,0.31-0.11,0.45-0.14c0.66-0.18,1.28-0.21,1.79-0.05c0.56,0.17,0.98,0.55,1.21,1.18
		c0.03,0.07,0.05,0.13,0.06,0.19c0.1,0.37,0.13,0.79,0.16,1.18c0.01,0.17,0.03,0.33,0.04,0.48l-0.81,0.09
		c-0.02-0.17-0.03-0.34-0.05-0.51c-0.02-0.23-0.03-0.46-0.06-0.67c-0.66,0.12-1.29,0.3-1.89,0.53c-0.61,0.23-1.2,0.51-1.77,0.84
		c0.1,0.17,0.22,0.33,0.34,0.5c0.09,0.12,0.17,0.24,0.26,0.38L53.65,53.39L53.65,53.39z M53.7,50.63c-0.11,0.19-0.18,0.41-0.19,0.65
		c0.55-0.31,1.12-0.57,1.71-0.79c0.62-0.23,1.26-0.41,1.92-0.54c-0.13-0.19-0.32-0.32-0.53-0.38c-0.36-0.11-0.82-0.08-1.34,0.06
		c-0.14,0.04-0.27,0.08-0.39,0.12C54.38,49.91,53.94,50.22,53.7,50.63L53.7,50.63z"/>
	<path class="st1" d="M67.83,50.21c0.08,0.56,0.06,1.07-0.06,1.56c-0.12,0.49-0.33,0.95-0.64,1.41l-0.67-0.46
		c0.19-0.28,0.34-0.57,0.44-0.87c-0.55-0.32-1.11-0.55-1.69-0.71c-0.57-0.16-1.14-0.25-1.71-0.29c-0.07,0.28-0.09,0.57-0.06,0.87
		l-0.81,0.06c-0.04-0.52,0.03-1.03,0.21-1.53c0.18-0.49,0.46-0.97,0.87-1.43l0.61,0.53c-0.2,0.23-0.37,0.47-0.5,0.71
		c0.54,0.05,1.09,0.15,1.62,0.3c0.55,0.16,1.09,0.37,1.62,0.65c0.01-0.22,0-0.45-0.04-0.69L67.83,50.21L67.83,50.21z"/>
	<path class="st1" d="M69.55,55.46c0.11-0.5,0.37-0.97,0.73-1.33c0.35-0.36,0.8-0.61,1.29-0.69c0.42-0.07,0.83,0.09,1.17,0.35
		c0.37,0.29,0.66,0.72,0.74,1.08c0.05,0.23,0,0.43-0.08,0.62c0.19,0.02,0.37,0.07,0.51,0.14c0.02,0.01,0.05,0.03,0.08,0.04
		c0.36,0.2,0.6,0.53,0.71,0.89c0.11,0.36,0.08,0.76-0.09,1.12c-0.01,0.02-0.02,0.05-0.04,0.08c-0.23,0.42-0.64,0.75-1.1,0.96
		c-0.48,0.23-1.03,0.33-1.51,0.28l0.08-0.81c0.34,0.03,0.74-0.04,1.09-0.21c0.31-0.15,0.58-0.36,0.73-0.62
		c0-0.01,0.01-0.02,0.02-0.04c0.08-0.17,0.09-0.36,0.04-0.54c-0.05-0.17-0.16-0.32-0.33-0.41c-0.01,0-0.02-0.01-0.04-0.02
		c-0.07-0.03-0.18-0.05-0.3-0.07c-0.17-0.02-0.35-0.01-0.48,0l-0.71,0.09l0.29-0.65c0.04-0.1,0.1-0.19,0.15-0.29
		c0.09-0.16,0.18-0.32,0.17-0.4c-0.04-0.19-0.21-0.44-0.44-0.61c-0.17-0.13-0.37-0.22-0.54-0.19c-0.32,0.05-0.61,0.22-0.85,0.46
		c-0.25,0.25-0.43,0.58-0.51,0.93L69.55,55.46L69.55,55.46z"/>
	<path class="st1" d="M73.59,62.48l0.09-0.02c0.73-0.14,1.69-0.33,2.43,0.12c0.41,0.25,0.75,0.61,0.99,1.02
		c0.23,0.41,0.36,0.87,0.35,1.34c-0.01,0.52-0.11,1.02-0.33,1.45c-0.2,0.41-0.5,0.75-0.91,1.01c-0.67,0.41-1.61,0.2-2.36,0.03
		c-0.06-0.01-0.12-0.03-0.24-0.05l0.17-0.79c0.03,0.01,0.14,0.03,0.25,0.06c0.14,0.03,0.28,0.06,0.43,0.09
		c0.08-0.59,0.14-1.19,0.16-1.79c0.02-0.6,0-1.21-0.06-1.82c-0.25,0.03-0.5,0.08-0.72,0.12l-0.09,0.02L73.59,62.48L73.59,62.48z
		 M75.69,63.27c-0.09-0.06-0.2-0.1-0.31-0.12c0.05,0.61,0.07,1.22,0.05,1.83c-0.02,0.62-0.08,1.24-0.16,1.85
		c0.2,0,0.39-0.04,0.52-0.12c0.28-0.17,0.48-0.4,0.61-0.68c0.16-0.33,0.23-0.71,0.24-1.11c0.01-0.32-0.08-0.64-0.25-0.92
		C76.22,63.7,75.98,63.45,75.69,63.27L75.69,63.27z"/>
	<path class="st1" d="M72,71.09c0.45,0.25,0.86,0.48,1.27,0.7c0.4,0.22,0.81,0.44,1.29,0.71l0.35,0.2l-0.2,0.35l-0.17,0.3
		c-0.75,1.33-2.05,3.66-3.84,2.73c-1.28-0.66-1.08-1.77-0.51-2.87c0.24-0.45,0.53-0.9,0.8-1.29c0.18-0.26,0.34-0.51,0.45-0.69
		l0.2-0.35L72,71.09L72,71.09z M72.89,72.51c-0.3-0.17-0.61-0.33-0.95-0.52c-0.08,0.13-0.17,0.26-0.26,0.4
		c-0.26,0.38-0.54,0.8-0.76,1.22c-0.37,0.71-0.53,1.41,0.16,1.77c1.07,0.56,2.12-1.28,2.73-2.36C73.5,72.84,73.19,72.67,72.89,72.51
		L72.89,72.51z"/>
	<path class="st1" d="M63.34,77.93c-0.01,0.3-0.01,0.64,0.03,0.97c0.55-0.07,1.12-0.2,1.71-0.38c0.61-0.19,1.24-0.46,1.88-0.8
		c-0.13-0.25-0.3-0.48-0.47-0.67l0.61-0.54c0.34,0.38,0.66,0.89,0.84,1.44c0.13,0.4,0.18,0.82,0.11,1.23
		c-0.08,0.43-0.28,0.83-0.67,1.18c-0.3,0.27-0.71,0.5-1.25,0.67c-1.68,0.54-2.6,0.12-3.11-0.64c-0.47-0.71-0.51-1.71-0.49-2.48
		L63.34,77.93L63.34,77.93z M63.57,79.69c0.04,0.09,0.08,0.17,0.13,0.25c0.31,0.48,0.94,0.71,2.18,0.32
		c0.42-0.14,0.73-0.31,0.95-0.51c0.24-0.22,0.37-0.46,0.41-0.71c0.03-0.18,0.03-0.37-0.01-0.56c-0.65,0.34-1.29,0.6-1.92,0.8
		C64.73,79.48,64.14,79.61,63.57,79.69L63.57,79.69z"/>
	<path class="st1" d="M54.22,79.55c0.05,0.06,0.11,0.12,0.17,0.18c0.41,0.4,0.87,0.64,1.32,0.68c0.44,0.04,0.88-0.11,1.29-0.47
		c0.04-0.04,0.08-0.08,0.13-0.12c0.04-0.04,0.07-0.08,0.1-0.13c0.11-0.17,0.14-0.39,0.09-0.62c-0.06-0.26-0.22-0.54-0.49-0.8
		c-0.14-0.13-0.3-0.26-0.5-0.39c-0.58-0.36-1.04-0.48-1.43-0.39c-0.31,0.07-0.61,0.28-0.93,0.6c0.26,0.17,0.52,0.32,0.78,0.44
		c0.38,0.18,0.77,0.3,1.21,0.37l-0.13,0.8c-0.52-0.09-0.98-0.23-1.42-0.44c-0.43-0.2-0.85-0.46-1.28-0.77l-0.35-0.25l0.28-0.34
		c0.54-0.65,1.06-1.07,1.66-1.21c0.61-0.14,1.26,0.01,2.04,0.49c0.25,0.15,0.46,0.32,0.64,0.49c0.39,0.38,0.63,0.81,0.72,1.21
		c0.1,0.44,0.03,0.86-0.19,1.22c-0.06,0.09-0.13,0.18-0.21,0.26c-0.05,0.05-0.11,0.11-0.17,0.16c-0.59,0.53-1.25,0.74-1.91,0.68
		c-0.64-0.06-1.27-0.38-1.82-0.91c-0.07-0.06-0.14-0.14-0.21-0.22L54.22,79.55L54.22,79.55z"/>
	<path class="st1" d="M48.73,71.6c-0.33,0.14-0.63,0.29-0.88,0.45c0.26,0.58,0.57,1.14,0.94,1.66c0.36,0.51,0.78,0.98,1.27,1.41
		c0.18-0.2,0.36-0.44,0.53-0.72l0.69,0.43c-0.39,0.63-0.82,1.1-1.26,1.4c-0.38,0.26-0.77,0.4-1.17,0.42c-0.4,0.02-0.81-0.1-1.2-0.34
		c-0.4-0.25-0.78-0.64-1.15-1.18c-0.14-0.2-0.25-0.4-0.33-0.6c-0.24-0.57-0.25-1.14-0.05-1.68v0c0.2-0.52,0.59-1,1.19-1.41
		c0.31-0.22,0.69-0.42,1.11-0.59L48.73,71.6L48.73,71.6z M47.21,72.59c-0.15,0.17-0.26,0.36-0.33,0.54l0,0
		c-0.13,0.34-0.12,0.71,0.04,1.09c0.06,0.15,0.14,0.3,0.25,0.44c0.31,0.44,0.61,0.76,0.92,0.95c0.25,0.16,0.5,0.23,0.74,0.22
		c0.2-0.01,0.41-0.07,0.62-0.2c-0.5-0.46-0.93-0.95-1.3-1.47C47.78,73.68,47.47,73.15,47.21,72.59L47.21,72.59z"/>
</g>
</svg>
