<?xml version="1.0" encoding="utf-8"?>
<!-- Generator: Adobe Illustrator 24.3.0, SVG Export Plug-In . SVG Version: 6.00 Build 0)  -->
<svg version="1.1" id="Layer_1" xmlns="http://www.w3.org/2000/svg" xmlns:xlink="http://www.w3.org/1999/xlink" x="0px" y="0px"
	 viewBox="0 0 1080 1080" style="enable-background:new 0 0 1080 1080;" xml:space="preserve">
<style type="text/css">
	.st0{fill:#0D426B;}
	.st1{fill:#FECF0C;}
	.st2{fill:#0A436A;}
</style>
<g>
	<g>
		<g>
			<path class="st0" d="M51.49,327.57c3.72-4.13,9.21-6.19,16.47-6.19c7.26,0,12.75,2.06,16.47,6.19
				c3.72,4.13,5.58,10.05,5.58,17.76v2.99H75.85v-3.95c0-3.27-0.64-5.65-1.91-7.15c-1.27-1.5-3.13-2.25-5.58-2.25
				c-2.45,0-4.31,0.75-5.58,2.25c-1.27,1.5-1.91,3.88-1.91,7.15c0,3.99,1.07,7.49,3.2,10.48c2.13,2.99,5.33,6.4,9.59,10.21
				c3.54,3.27,6.4,6.15,8.57,8.64c2.18,2.5,4.04,5.51,5.58,9.05c1.54,3.54,2.31,7.58,2.31,12.11c0,7.71-1.91,13.63-5.72,17.76
				c-3.81,4.13-9.35,6.19-16.6,6.19c-7.26,0-12.79-2.06-16.6-6.19c-3.81-4.13-5.72-10.05-5.72-17.76v-5.85h14.15v6.8
				c0,6.17,2.59,9.25,7.76,9.25c5.17,0,7.76-3.08,7.76-9.25c0-3.99-1.07-7.48-3.2-10.48c-2.13-2.99-5.33-6.4-9.59-10.21
				c-3.54-3.27-6.4-6.15-8.57-8.64c-2.18-2.49-4.04-5.51-5.58-9.05c-1.54-3.54-2.31-7.57-2.31-12.11
				C45.91,337.62,47.77,331.7,51.49,327.57z"/>
			<path class="st0" d="M240.93,417.73l-2.59-17.28h-18.37l-2.59,17.28h-13.75l15.24-95.27h21.91l15.24,95.27H240.93z M236.3,387.52
				l-7.21-48.18l-7.21,48.18H236.3z"/>
			<path class="st0" d="M408.6,322.47v13.61h-15.65v81.66h-14.97v-81.66h-15.65v-13.61H408.6z"/>
			<path class="st0" d="M567.42,364.66v30.21c0,7.71-1.91,13.63-5.72,17.76c-3.81,4.13-9.35,6.19-16.6,6.19
				c-7.26,0-12.79-2.06-16.6-6.19c-3.81-4.13-5.72-10.05-5.72-17.76v-49.54c0-7.71,1.91-13.63,5.72-17.76
				c3.81-4.13,9.34-6.19,16.6-6.19c7.26,0,12.79,2.06,16.6,6.19c3.81,4.13,5.72,10.05,5.72,17.76v9.25h-14.15v-10.21
				c0-6.26-2.59-9.39-7.76-9.39c-5.17,0-7.76,3.13-7.76,9.39v51.44c0,6.17,2.59,9.25,7.76,9.25c5.17,0,7.76-3.08,7.76-9.25v-17.56
				h-6.8v-13.61H567.42z"/>
			<path class="st0" d="M719.16,417.73l-2.59-17.28H698.2l-2.59,17.28h-13.75l15.24-95.27h21.91l15.24,95.27H719.16z M714.54,387.52
				l-7.21-48.18l-7.21,48.18H714.54z"/>
			<path class="st0" d="M853.76,327.57c3.72-4.13,9.21-6.19,16.47-6.19c7.26,0,12.75,2.06,16.47,6.19
				c3.72,4.13,5.58,10.05,5.58,17.76v2.99h-14.15v-3.95c0-3.27-0.64-5.65-1.91-7.15c-1.27-1.5-3.13-2.25-5.58-2.25
				c-2.45,0-4.31,0.75-5.58,2.25c-1.27,1.5-1.91,3.88-1.91,7.15c0,3.99,1.07,7.49,3.2,10.48c2.13,2.99,5.33,6.4,9.59,10.21
				c3.54,3.27,6.4,6.15,8.57,8.64c2.18,2.5,4.04,5.51,5.58,9.05c1.54,3.54,2.31,7.58,2.31,12.11c0,7.71-1.91,13.63-5.72,17.76
				c-3.81,4.13-9.35,6.19-16.6,6.19c-7.26,0-12.79-2.06-16.6-6.19c-3.81-4.13-5.72-10.05-5.72-17.76v-5.85h14.15v6.8
				c0,6.17,2.59,9.25,7.76,9.25c5.17,0,7.76-3.08,7.76-9.25c0-3.99-1.07-7.48-3.2-10.48c-2.13-2.99-5.33-6.4-9.59-10.21
				c-3.54-3.27-6.4-6.15-8.57-8.64c-2.18-2.49-4.04-5.51-5.58-9.05c-1.54-3.54-2.31-7.57-2.31-12.11
				C848.18,337.62,850.04,331.7,853.76,327.57z"/>
			<path class="st0" d="M143.53,622.31c0,17.43-4.3,30.8-12.91,40.13c-8.61,9.33-21.12,13.99-37.51,13.99
				c-16.4,0-28.9-4.66-37.51-13.99c-8.61-9.33-12.91-22.7-12.91-40.13V510.39c0-17.42,4.3-30.8,12.91-40.13
				c8.61-9.33,21.11-13.99,37.51-13.99c16.4,0,28.9,4.67,37.51,13.99c8.61,9.33,12.91,22.71,12.91,40.13v20.91h-31.98v-23.06
				c0-14.14-5.84-21.22-17.53-21.22s-17.53,7.07-17.53,21.22v116.23c0,13.94,5.84,20.91,17.53,20.91s17.53-6.97,17.53-20.91v-30.75
				h31.98V622.31z"/>
			<path class="st0" d="M174.58,470.42c8.81-9.43,21.52-14.14,38.13-14.14s29.31,4.72,38.13,14.14
				c8.81,9.43,13.22,22.75,13.22,39.97v111.92c0,17.22-4.41,30.55-13.22,39.97c-8.82,9.43-21.52,14.14-38.13,14.14
				s-29.32-4.71-38.13-14.14c-8.82-9.43-13.22-22.75-13.22-39.97V510.39C161.36,493.17,165.77,479.85,174.58,470.42z M212.71,645.68
				c11.68,0,17.53-7.07,17.53-21.22V508.24c0-14.14-5.84-21.22-17.53-21.22s-17.53,7.07-17.53,21.22v116.23
				C195.18,638.61,201.03,645.68,212.71,645.68z"/>
			<path class="st0" d="M362.45,458.73h31.06L360.3,673.97h-50.43l-33.21-215.24h34.13l25.83,175.57L362.45,458.73z"/>
			<path class="st0" d="M443.01,458.73v215.24h-33.82V458.73H443.01z"/>
			<path class="st0" d="M521.11,458.73c16.81,0,29.41,4.51,37.82,13.53c8.4,9.02,12.61,22.24,12.61,39.67v108.85
				c0,17.43-4.2,30.65-12.61,39.67c-8.41,9.02-21.01,13.53-37.82,13.53h-53.5V458.73H521.11z M501.43,643.22h19.06
				c5.53,0,9.79-1.64,12.76-4.92c2.97-3.28,4.46-8.61,4.46-15.99V510.39c0-7.38-1.49-12.71-4.46-15.99
				c-2.97-3.28-7.23-4.92-12.76-4.92h-19.06V643.22z"/>
			<path class="st0" d="M653.01,550.98v30.75h-61.5v-30.75H653.01z"/>
			<path class="st0" d="M716.51,482.25c4.81-2.35,8.4-5.38,10.76-9.07c2.35-3.69,4.66-8.5,6.92-14.45h22.75v215.24h-33.82V509.77
				h-26.14v-23.98C705.18,485.79,711.69,484.61,716.51,482.25z"/>
			<path class="st0" d="M845.49,676.43c-16.4,0-28.9-4.66-37.51-13.99c-8.61-9.33-12.91-22.7-12.91-40.13v-5.53h31.98v7.69
				c0,14.14,5.84,21.22,17.53,21.22c6.35,0,11.07-1.95,14.14-5.84c3.08-3.89,4.61-10.76,4.61-20.6v-39.36
				c-5.95,12.71-16.4,19.06-31.36,19.06c-12.3,0-21.63-4.2-27.98-12.61c-6.36-8.4-9.53-20.6-9.53-36.59v-39.36
				c0-17.22,4.41-30.54,13.22-39.97c8.81-9.43,21.52-14.14,38.13-14.14c16.6,0,29.31,4.72,38.13,14.14
				c8.81,9.43,13.22,22.75,13.22,39.97v110.08C897.15,657.78,879.93,676.43,845.49,676.43z M863.33,546.98v-38.74
				c0-13.94-5.84-20.91-17.53-20.91c-11.68,0-17.53,6.97-17.53,20.91v38.74c0,14.14,5.84,21.22,17.53,21.22
				C857.48,568.2,863.33,561.12,863.33,546.98z"/>
		</g>
		<rect x="973.42" y="300.52" class="st1" width="73.44" height="477"/>
	</g>
	<g>
		<path class="st2" d="M45.05,764.38c0,3.72,1.56,5.59,4.68,5.59s4.68-1.86,4.68-5.59v-44.36h8.54v43.79
			c0,4.66-1.15,8.23-3.45,10.72c-2.3,2.49-5.64,3.74-10.02,3.74c-4.38,0-7.72-1.25-10.02-3.74c-2.3-2.49-3.45-6.07-3.45-10.72
			v-43.79h9.04V764.38z"/>
		<path class="st2" d="M85.55,777.52h-8.13v-57.5h11.34l9.28,34.42v-34.42h8.05v57.5h-9.28l-11.25-41.65V777.52z"/>
		<path class="st2" d="M129.99,720.02v57.5h-9.04v-57.5H129.99z"/>
		<path class="st2" d="M165.48,720.02h8.3l-8.87,57.5h-13.47l-8.87-57.5h9.12l6.9,46.91L165.48,720.02z"/>
		<path class="st2" d="M207.79,744.25v8.21h-12.4v16.84h15.61v8.21h-24.64v-57.5h24.64v8.22h-15.61v16.02H207.79z"/>
		<path class="st2" d="M243.19,774.89c-0.11-0.82-0.16-2.3-0.16-4.44v-9.04c0-2.63-0.47-4.5-1.4-5.63
			c-0.93-1.12-2.44-1.68-4.52-1.68h-3.12v23.41h-9.04v-57.5h13.64c4.65,0,8.05,1.08,10.19,3.25c2.14,2.16,3.2,5.49,3.2,9.98v4.52
			c0,5.91-1.97,9.8-5.91,11.67c2.14,0.88,3.67,2.34,4.6,4.39c0.93,2.05,1.4,4.67,1.4,7.85v8.87c0,1.64,0.05,2.97,0.16,3.98
			c0.11,1.01,0.38,2.01,0.82,3h-9.2C243.52,776.59,243.3,775.71,243.19,774.89z M233.99,745.89h3.53c1.81,0,3.16-0.46,4.07-1.4
			c0.9-0.93,1.36-2.49,1.36-4.68v-5.67c0-2.08-0.37-3.59-1.11-4.52c-0.74-0.93-1.9-1.4-3.49-1.4h-4.35V745.89z"/>
		<path class="st2" d="M268.58,723.1c2.25-2.49,5.56-3.74,9.94-3.74c4.38,0,7.69,1.25,9.94,3.74c2.24,2.49,3.37,6.07,3.37,10.72
			v1.81h-8.54v-2.38c0-1.97-0.38-3.41-1.15-4.31c-0.77-0.9-1.89-1.36-3.37-1.36s-2.6,0.45-3.37,1.36c-0.77,0.9-1.15,2.34-1.15,4.31
			c0,2.41,0.64,4.52,1.93,6.33c1.29,1.81,3.22,3.86,5.79,6.16c2.14,1.97,3.86,3.71,5.18,5.22c1.31,1.51,2.44,3.33,3.37,5.46
			c0.93,2.14,1.4,4.57,1.4,7.31c0,4.66-1.15,8.23-3.45,10.72c-2.3,2.49-5.64,3.74-10.02,3.74c-4.38,0-7.72-1.25-10.02-3.74
			c-2.3-2.49-3.45-6.06-3.45-10.72v-3.53h8.54v4.11c0,3.72,1.56,5.59,4.68,5.59c3.12,0,4.68-1.86,4.68-5.59
			c0-2.41-0.64-4.52-1.93-6.33c-1.29-1.81-3.22-3.86-5.79-6.16c-2.14-1.97-3.86-3.71-5.18-5.22c-1.31-1.51-2.44-3.33-3.37-5.46
			c-0.93-2.14-1.4-4.57-1.4-7.31C265.21,729.17,266.33,725.59,268.58,723.1z"/>
		<path class="st2" d="M314.5,720.02v57.5h-9.04v-57.5H314.5z"/>
		<path class="st2" d="M354.75,720.02v8.22h-9.45v49.29h-9.04v-49.29h-9.45v-8.22H354.75z"/>
		<path class="st2" d="M384.08,777.52l-1.56-10.43h-11.09l-1.56,10.43h-8.3l9.2-57.5H384l9.2,57.5H384.08z M381.28,759.29
			l-4.35-29.08l-4.35,29.08H381.28z"/>
		<path class="st2" d="M407.98,723.1c2.25-2.49,5.56-3.74,9.94-3.74c4.38,0,7.69,1.25,9.94,3.74c2.24,2.49,3.37,6.07,3.37,10.72
			v1.81h-8.54v-2.38c0-1.97-0.38-3.41-1.15-4.31c-0.77-0.9-1.89-1.36-3.37-1.36s-2.6,0.45-3.37,1.36c-0.77,0.9-1.15,2.34-1.15,4.31
			c0,2.41,0.64,4.52,1.93,6.33c1.29,1.81,3.22,3.86,5.79,6.16c2.14,1.97,3.86,3.71,5.18,5.22c1.31,1.51,2.44,3.33,3.37,5.46
			c0.93,2.14,1.4,4.57,1.4,7.31c0,4.66-1.15,8.23-3.45,10.72c-2.3,2.49-5.64,3.74-10.02,3.74c-4.38,0-7.72-1.25-10.02-3.74
			c-2.3-2.49-3.45-6.06-3.45-10.72v-3.53h8.54v4.11c0,3.72,1.56,5.59,4.68,5.59c3.12,0,4.68-1.86,4.68-5.59
			c0-2.41-0.64-4.52-1.93-6.33c-1.29-1.81-3.22-3.86-5.79-6.16c-2.14-1.97-3.86-3.71-5.18-5.22c-1.31-1.51-2.44-3.33-3.37-5.46
			c-0.93-2.14-1.4-4.57-1.4-7.31C404.61,729.17,405.74,725.59,407.98,723.1z"/>
		<path class="st2" d="M492.19,745.48v18.24c0,4.66-1.15,8.23-3.45,10.72c-2.3,2.49-5.64,3.74-10.02,3.74
			c-4.38,0-7.72-1.25-10.02-3.74c-2.3-2.49-3.45-6.06-3.45-10.72v-29.9c0-4.65,1.15-8.23,3.45-10.72c2.3-2.49,5.64-3.74,10.02-3.74
			c4.38,0,7.72,1.25,10.02,3.74c2.3,2.49,3.45,6.07,3.45,10.72v5.59h-8.54v-6.16c0-3.78-1.56-5.67-4.68-5.67s-4.68,1.89-4.68,5.67
			v31.05c0,3.72,1.56,5.59,4.68,5.59s4.68-1.86,4.68-5.59v-10.6h-4.11v-8.21H492.19z"/>
		<path class="st2" d="M526.44,777.52l-1.56-10.43h-11.09l-1.56,10.43h-8.3l9.2-57.5h13.23l9.2,57.5H526.44z M523.65,759.29
			l-4.35-29.08l-4.35,29.08H523.65z"/>
		<path class="st2" d="M562.42,720.02c4.49,0,7.86,1.21,10.1,3.62c2.25,2.41,3.37,5.94,3.37,10.6v29.08c0,4.66-1.12,8.19-3.37,10.6
			c-2.25,2.41-5.61,3.61-10.1,3.61h-14.29v-57.5H562.42z M557.17,769.31h5.09c1.48,0,2.61-0.44,3.41-1.31
			c0.79-0.88,1.19-2.3,1.19-4.27v-29.9c0-1.97-0.4-3.4-1.19-4.27c-0.79-0.88-1.93-1.31-3.41-1.31h-5.09V769.31z"/>
		<path class="st2" d="M590.68,769.39c1.64,0,2.92-0.4,3.82-1.19c0.9-0.79,1.36-2.23,1.36-4.31v-43.87h9.04v43.21
			c0,9.64-4.33,14.46-12.98,14.46c-1.92,0-3.37-0.05-4.35-0.16v-8.21C588.22,769.36,589.26,769.39,590.68,769.39z"/>
		<path class="st2" d="M639.56,777.52L638,767.09h-11.09l-1.56,10.43h-8.3l9.2-57.5h13.23l9.2,57.5H639.56z M636.77,759.29
			l-4.35-29.08l-4.35,29.08H636.77z"/>
		<path class="st2" d="M661.25,777.52v-57.5h9.04v24.65h10.27v-24.65h9.2v57.5h-9.2v-24.64h-10.27v24.64H661.25z"/>
		<path class="st2" d="M751.12,720.02h12.57v57.5h-8.54v-41.24l-6.24,41.24h-8.54l-6.74-40.66v40.66h-7.89v-57.5h12.57l6.65,40.83
			L751.12,720.02z"/>
		<path class="st2" d="M798.76,777.52l-1.56-10.43h-11.09l-1.56,10.43h-8.3l9.2-57.5h13.23l9.2,57.5H798.76z M795.97,759.29
			l-4.35-29.08l-4.35,29.08H795.97z"/>
		<path class="st2" d="M834.74,720.02c4.49,0,7.86,1.21,10.1,3.62c2.25,2.41,3.37,5.94,3.37,10.6v29.08c0,4.66-1.12,8.19-3.37,10.6
			c-2.25,2.41-5.61,3.61-10.1,3.61h-14.29v-57.5H834.74z M829.49,769.31h5.09c1.48,0,2.61-0.44,3.41-1.31
			c0.79-0.88,1.19-2.3,1.19-4.27v-29.9c0-1.97-0.4-3.4-1.19-4.27c-0.79-0.88-1.93-1.31-3.41-1.31h-5.09V769.31z"/>
		<path class="st2" d="M882.39,777.52l-1.56-10.43h-11.09l-1.56,10.43h-8.3l9.2-57.5h13.23l9.2,57.5H882.39z M879.6,759.29
			l-4.35-29.08l-4.35,29.08H879.6z"/>
	</g>
</g>
</svg>
